<?xml version="1.0" encoding="utf-8" ?>
<svg baseProfile="tiny" height="21600" version="1.2" width="28800" xmlns="http://www.w3.org/2000/svg" xmlns:ev="http://www.w3.org/2001/xml-events" xmlns:xlink="http://www.w3.org/1999/xlink"><defs /><rect fill="rgb(69,231,75)" height="16200.0" width="28800" x="0" y="0" /><rect fill="rgb(132,144,187)" height="4968.0" width="28800" x="0" y="16200.0" /><rect fill="rgb(139,44,79)" height="0.0001" width="28800" x="0" y="21168.0" /><rect fill="rgb(151,23,79)" height="0.0" width="28800" x="0" y="21168.0001" /><rect fill="rgb(30,139,49)" height="0.0" width="28800" x="0" y="21168.0002" /><rect fill="rgb(7,93,98)" height="108.0" width="28800" x="0" y="21168.0002" /><rect fill="rgb(149,61,10)" height="21.6" width="28800" x="0" y="21276.0002" /><rect fill="rgb(93,26,218)" height="216.0" width="28800" x="0" y="21297.6002" /><rect fill="rgb(0,45,173)" height="0.0086" width="28800" x="0" y="21513.6002" /><rect fill="rgb(213,110,172)" height="28.08" width="28800" x="0" y="21513.6088" /><rect fill="rgb(25,124,234)" height="0.432" width="28800" x="0" y="21541.6888" /><rect fill="rgb(117,149,206)" height="12.96" width="28800" x="0" y="21542.1208" /><rect fill="rgb(203,248,41)" height="1.08" width="28800" x="0" y="21555.0808" /><rect fill="rgb(166,86,215)" height="15.12" width="28800" x="0" y="21556.1608" /><rect fill="rgb(120,53,88)" height="0.1512" width="28800" x="0" y="21571.2808" /><rect fill="rgb(202,0,51)" height="10.8" width="28800" x="0" y="21571.432" /><rect fill="rgb(59,24,251)" height="0.0216" width="28800" x="0" y="21582.232" /><rect fill="rgb(11,182,14)" height="4.32" width="28800" x="0" y="21582.2536" /><rect fill="rgb(70,224,228)" height="0.0648" width="28800" x="0" y="21586.5736" /><rect fill="rgb(154,142,91)" height="1.512" width="28800" x="0" y="21586.6384" /><rect fill="rgb(61,246,165)" height="0.0006" width="28800" x="0" y="21588.1504" /><rect fill="rgb(55,243,22)" height="0.0648" width="28800" x="0" y="21588.1511" /><rect fill="rgb(120,115,121)" height="0.0216" width="28800" x="0" y="21588.2159" /><rect fill="rgb(11,181,167)" height="0.324" width="28800" x="0" y="21588.2375" /><rect fill="rgb(87,154,32)" height="0.1728" width="28800" x="0" y="21588.5615" /><rect fill="rgb(18,21,72)" height="23.76" width="28800" x="0" y="21588.7343" /><rect fill="rgb(27,95,157)" height="0.0648" width="28800" x="0" y="21612.4943" /><rect fill="rgb(30,178,86)" height="1.296" width="28800" x="0" y="21612.5591" /><rect fill="rgb(67,166,10)" height="0.0013" width="28800" x="0" y="21613.8551" /><rect fill="rgb(35,225,122)" height="0.0065" width="28800" x="0" y="21613.8564" /><rect fill="rgb(110,45,28)" height="0.0002" width="28800" x="0" y="21613.8628" /><rect fill="rgb(118,231,203)" height="0.0043" width="28800" x="0" y="21613.8631" /><rect fill="rgb(34,93,234)" height="0.0002" width="28800" x="0" y="21613.8674" /><rect fill="rgb(117,113,244)" height="0.0006" width="28800" x="0" y="21613.8675" /><rect fill="rgb(47,73,111)" height="0.0002" width="28800" x="0" y="21613.8682" /><rect fill="rgb(53,156,151)" height="0.0009" width="28800" x="0" y="21613.8683" /><rect fill="rgb(1,208,126)" height="0.0002" width="28800" x="0" y="21613.8692" /><rect fill="rgb(251,146,120)" height="0.0009" width="28800" x="0" y="21613.8694" /><rect fill="rgb(233,121,199)" height="0.0002" width="28800" x="0" y="21613.8703" /><rect fill="rgb(177,202,223)" height="0.0011" width="28800" x="0" y="21613.8704" /><rect fill="rgb(250,104,40)" height="0.0" width="28800" x="0" y="21613.8715" /><rect fill="rgb(215,40,117)" height="0.0001" width="28800" x="0" y="21613.8716" /><rect fill="rgb(220,118,253)" height="0.0001" width="28800" x="0" y="21613.8717" /><rect fill="rgb(32,112,171)" height="0.0" width="28800" x="0" y="21613.8718" /><rect fill="rgb(124,60,0)" height="0.0" width="28800" x="0" y="21613.8718" /><rect fill="rgb(128,74,108)" height="0.0" width="28800" x="0" y="21613.8718" /><rect fill="rgb(154,53,219)" height="0.0" width="28800" x="0" y="21613.8718" /><rect fill="rgb(164,87,107)" height="0.0" width="28800" x="0" y="21613.8719" /><rect fill="rgb(141,120,22)" height="0.0001" width="28800" x="0" y="21613.8719" /><rect fill="rgb(88,82,145)" height="0.0" width="28800" x="0" y="21613.872" /><rect fill="rgb(138,60,160)" height="0.0002" width="28800" x="0" y="21613.872" /><rect fill="rgb(45,144,185)" height="0.0" width="28800" x="0" y="21613.8722" /><rect fill="rgb(38,184,185)" height="0.0002" width="28800" x="0" y="21613.8722" /><rect fill="rgb(164,132,214)" height="0.0" width="28800" x="0" y="21613.8724" /><rect fill="rgb(156,114,221)" height="0.0002" width="28800" x="0" y="21613.8724" /><rect fill="rgb(178,67,168)" height="0.0" width="28800" x="0" y="21613.8726" /><rect fill="rgb(194,184,184)" height="0.0" width="28800" x="0" y="21613.8727" /><rect fill="rgb(155,15,59)" height="0.0" width="28800" x="0" y="21613.8727" /><rect fill="rgb(238,210,33)" height="0.0" width="28800" x="0" y="21613.8727" /><rect fill="rgb(5,25,135)" height="0.0001" width="28800" x="0" y="21613.8727" /><rect fill="rgb(92,240,49)" height="0.0" width="28800" x="0" y="21613.8727" /><rect fill="rgb(40,196,25)" height="0.0001" width="28800" x="0" y="21613.8728" /><rect fill="rgb(96,214,201)" height="0.0" width="28800" x="0" y="21613.8729" /><rect fill="rgb(156,8,160)" height="0.0" width="28800" x="0" y="21613.8729" /><rect fill="rgb(7,216,142)" height="0.0" width="28800" x="0" y="21613.8729" /><rect fill="rgb(140,123,62)" height="0.0002" width="28800" x="0" y="21613.8729" /><rect fill="rgb(8,43,36)" height="0.0" width="28800" x="0" y="21613.8731" /><rect fill="rgb(59,218,77)" height="0.0" width="28800" x="0" y="21613.8732" /><rect fill="rgb(22,242,144)" height="0.0002" width="28800" x="0" y="21613.8732" /><rect fill="rgb(116,40,182)" height="0.0" width="28800" x="0" y="21613.8734" /><rect fill="rgb(171,155,9)" height="0.0002" width="28800" x="0" y="21613.8735" /><rect fill="rgb(187,154,62)" height="0.0001" width="28800" x="0" y="21613.8737" /><rect fill="rgb(11,61,86)" height="0.0" width="28800" x="0" y="21613.8738" /><rect fill="rgb(148,242,25)" height="0.0" width="28800" x="0" y="21613.8738" /><rect fill="rgb(112,97,169)" height="0.0" width="28800" x="0" y="21613.8738" /><rect fill="rgb(193,213,169)" height="0.0" width="28800" x="0" y="21613.8739" /><rect fill="rgb(211,21,26)" height="0.0" width="28800" x="0" y="21613.8739" /><rect fill="rgb(212,38,86)" height="0.0" width="28800" x="0" y="21613.8739" /><rect fill="rgb(168,189,215)" height="0.0" width="28800" x="0" y="21613.8739" /><rect fill="rgb(169,228,69)" height="0.0" width="28800" x="0" y="21613.874" /><rect fill="rgb(12,142,201)" height="0.0" width="28800" x="0" y="21613.874" /><rect fill="rgb(66,206,177)" height="0.0" width="28800" x="0" y="21613.874" /><rect fill="rgb(113,204,229)" height="0.0" width="28800" x="0" y="21613.874" /></svg>