<?xml version="1.0" encoding="utf-8" ?>
<svg baseProfile="tiny" height="100%" version="1.2" width="100%" xmlns="http://www.w3.org/2000/svg" xmlns:ev="http://www.w3.org/2001/xml-events" xmlns:xlink="http://www.w3.org/1999/xlink"><defs /><text fill="black" x="10" y="20">Hydrogen</text><text fill="black" x="150" y="20">75%</text><text fill="black" x="10" y="40">Helium</text><text fill="black" x="150" y="40">23%</text><text fill="black" x="10" y="60">Lithium</text><text fill="black" x="150" y="60">0.0000006%</text><text fill="black" x="10" y="80">Beryllium</text><text fill="black" x="150" y="80">0.0000001%</text><text fill="black" x="10" y="100">Boron</text><text fill="black" x="150" y="100">0.0000001%</text><text fill="black" x="10" y="120">Carbon</text><text fill="black" x="150" y="120">0.5%</text><text fill="black" x="10" y="140">Nitrogen</text><text fill="black" x="150" y="140">0.1%</text><text fill="black" x="10" y="160">Oxygen</text><text fill="black" x="150" y="160">1%</text><text fill="black" x="10" y="180">Fluorine</text><text fill="black" x="150" y="180">0.00004%</text><text fill="black" x="10" y="200">Neon</text><text fill="black" x="150" y="200">0.13%</text><text fill="black" x="10" y="220">Sodium</text><text fill="black" x="150" y="220">0.002%</text><text fill="black" x="10" y="240">Magnesium</text><text fill="black" x="150" y="240">0.06%</text><text fill="black" x="10" y="260">Aluminum</text><text fill="black" x="150" y="260">0.005%</text><text fill="black" x="10" y="280">Silicon</text><text fill="black" x="150" y="280">0.07%</text><text fill="black" x="10" y="300">Phosphorus</text><text fill="black" x="150" y="300">0.0007%</text><text fill="black" x="10" y="320">Sulfur</text><text fill="black" x="150" y="320">0.05%</text><text fill="black" x="10" y="340">Chlorine</text><text fill="black" x="150" y="340">0.0001%</text><text fill="black" x="10" y="360">Argon</text><text fill="black" x="150" y="360">0.02%</text><text fill="black" x="10" y="380">Potassium</text><text fill="black" x="150" y="380">0.0003%</text><text fill="black" x="10" y="400">Calcium</text><text fill="black" x="150" y="400">0.007%</text><text fill="black" x="10" y="420">Scandium</text><text fill="black" x="150" y="420">0.000003%</text><text fill="black" x="10" y="440">Titanium</text><text fill="black" x="150" y="440">0.0003%</text><text fill="black" x="10" y="460">Vanadium</text><text fill="black" x="150" y="460">0.0001%</text><text fill="black" x="10" y="480">Chromium</text><text fill="black" x="150" y="480">0.0015%</text><text fill="black" x="10" y="500">Manganese</text><text fill="black" x="150" y="500">0.0008%</text><text fill="black" x="10" y="520">Iron</text><text fill="black" x="150" y="520">0.11%</text><text fill="black" x="10" y="540">Cobalt</text><text fill="black" x="150" y="540">0.0003%</text><text fill="black" x="10" y="560">Nickel</text><text fill="black" x="150" y="560">0.006%</text><text fill="black" x="10" y="580">Copper</text><text fill="black" x="150" y="580">0.000006%</text><text fill="black" x="10" y="600">Zinc</text><text fill="black" x="150" y="600">0.00003%</text><text fill="black" x="10" y="620">Gallium</text><text fill="black" x="150" y="620">0.000001%</text><text fill="black" x="10" y="640">Germanium</text><text fill="black" x="150" y="640">0.00002%</text><text fill="black" x="10" y="660">Arsenic</text><text fill="black" x="150" y="660">0.0000008%</text><text fill="black" x="10" y="680">Selenium</text><text fill="black" x="150" y="680">0.000003%</text><text fill="black" x="10" y="700">Bromine</text><text fill="black" x="150" y="700">0.0000007%</text><text fill="black" x="10" y="720">Krypton</text><text fill="black" x="150" y="720">0.000004%</text><text fill="black" x="10" y="740">Rubidium</text><text fill="black" x="150" y="740">0.000001%</text><text fill="black" x="10" y="760">Strontium</text><text fill="black" x="150" y="760">0.000004%</text><text fill="black" x="10" y="780">Yttrium</text><text fill="black" x="150" y="780">0.0000007%</text><text fill="black" x="10" y="800">Zirconium</text><text fill="black" x="150" y="800">0.000005%</text><text fill="black" x="10" y="820">Niobium</text><text fill="black" x="150" y="820">0.0000002%</text><text fill="black" x="10" y="840">Molybdenum</text><text fill="black" x="150" y="840">0.0000005%</text><text fill="black" x="10" y="860">Ruthenium</text><text fill="black" x="150" y="860">0.0000004%</text><text fill="black" x="10" y="880">Rhodium</text><text fill="black" x="150" y="880">0.00000006%</text><text fill="black" x="10" y="900">Palladium</text><text fill="black" x="150" y="900">0.0000002%</text><text fill="black" x="10" y="920">Silver</text><text fill="black" x="150" y="920">0.00000006%</text><text fill="black" x="10" y="940">Cadmium</text><text fill="black" x="150" y="940">0.0000002%</text><text fill="black" x="10" y="960">Indium</text><text fill="black" x="150" y="960">0.00000003%</text><text fill="black" x="10" y="980">Tin</text><text fill="black" x="150" y="980">0.0000004%</text><text fill="black" x="10" y="1000">Antimony</text><text fill="black" x="150" y="1000">0.00000004%</text><text fill="black" x="10" y="1020">Tellurium</text><text fill="black" x="150" y="1020">0.0000009%</text><text fill="black" x="10" y="1040">Iodine</text><text fill="black" x="150" y="1040">0.0000001%</text><text fill="black" x="10" y="1060">Xenon</text><text fill="black" x="150" y="1060">0.000001%</text><text fill="black" x="10" y="1080">Caesium</text><text fill="black" x="150" y="1080">0.00000008%</text><text fill="black" x="10" y="1100">Barium</text><text fill="black" x="150" y="1100">0.000001%</text><text fill="black" x="10" y="1120">Hafnium</text><text fill="black" x="150" y="1120">0.00000007%</text><text fill="black" x="10" y="1140">Tantalum</text><text fill="black" x="150" y="1140">0.000000008%</text><text fill="black" x="10" y="1160">Tungsten</text><text fill="black" x="150" y="1160">0.00000005%</text><text fill="black" x="10" y="1180">Rhenium</text><text fill="black" x="150" y="1180">0.00000002%</text><text fill="black" x="10" y="1200">Osmium</text><text fill="black" x="150" y="1200">0.0000003%</text><text fill="black" x="10" y="1220">Iridium</text><text fill="black" x="150" y="1220">0.0000002%</text><text fill="black" x="10" y="1240">Platinum</text><text fill="black" x="150" y="1240">0.0000005%</text><text fill="black" x="10" y="1260">Gold</text><text fill="black" x="150" y="1260">0.00000006%</text><text fill="black" x="10" y="1280">Mercury</text><text fill="black" x="150" y="1280">0.0000001%</text><text fill="black" x="10" y="1300">Thallium</text><text fill="black" x="150" y="1300">0.00000005%</text><text fill="black" x="10" y="1320">Lead</text><text fill="black" x="150" y="1320">0.000001%</text><text fill="black" x="10" y="1340">Bismuth</text><text fill="black" x="150" y="1340">0.00000007%</text><text fill="black" x="10" y="1360">Lanthanum</text><text fill="black" x="150" y="1360">0.0000002%</text><text fill="black" x="10" y="1380">Cerium</text><text fill="black" x="150" y="1380">0.000001%</text><text fill="black" x="10" y="1400">Praseodymium</text><text fill="black" x="150" y="1400">0.0000002%</text><text fill="black" x="10" y="1420">Neodymium</text><text fill="black" x="150" y="1420">0.000001%</text><text fill="black" x="10" y="1440">Samarium</text><text fill="black" x="150" y="1440">0.0000005%</text><text fill="black" x="10" y="1460">Europium</text><text fill="black" x="150" y="1460">0.00000005%</text><text fill="black" x="10" y="1480">Gadolinium</text><text fill="black" x="150" y="1480">0.0000002%</text><text fill="black" x="10" y="1500">Terbium</text><text fill="black" x="150" y="1500">0.00000005%</text><text fill="black" x="10" y="1520">Dysprosium</text><text fill="black" x="150" y="1520">0.0000002%</text><text fill="black" x="10" y="1540">Holmium</text><text fill="black" x="150" y="1540">0.00000005%</text><text fill="black" x="10" y="1560">Erbium</text><text fill="black" x="150" y="1560">0.0000002%</text><text fill="black" x="10" y="1580">Thulium</text><text fill="black" x="150" y="1580">0.00000001%</text><text fill="black" x="10" y="1600">Ytterbium</text><text fill="black" x="150" y="1600">0.0000002%</text><text fill="black" x="10" y="1620">Lutetium</text><text fill="black" x="150" y="1620">0.00000001%</text><text fill="black" x="10" y="1640">Thorium</text><text fill="black" x="150" y="1640">0.00000004%</text><text fill="black" x="10" y="1660">Uranium</text><text fill="black" x="150" y="1660">0.00000002%</text></svg>