<svg width="245" height="151" viewBox="0 0 245 151" fill="none" xmlns="http://www.w3.org/2000/svg">
<path d="M2.98891 64.4168C4.32191 61.506 5.65591 58.5952 6.98891 55.7481C8.32191 52.901 9.65591 50.1174 10.9889 47.4583C12.3219 44.7992 13.6559 42.2645 14.9889 39.9096C16.3219 37.5548 17.6559 35.3797 18.9889 33.4321C20.3219 31.4844 21.6559 29.7641 22.9889 28.3087C24.3222 26.8533 25.6556 25.6629 26.9889 24.7634C28.3222 23.8639 29.6556 23.2554 30.9889 22.9511C32.3222 22.6469 33.6556 22.6469 34.9889 22.9511C36.3222 23.2554 37.6556 23.8639 38.9889 24.7634C40.3222 25.6629 41.6556 26.8533 42.9889 28.3087C44.3222 29.7641 45.6556 31.4844 46.9889 33.4321C48.3222 35.3798 49.6556 37.5548 50.9889 39.9096C52.3222 42.2645 53.6556 44.7992 54.9889 47.4583C56.3222 50.1174 57.6556 52.901 58.9889 55.7481C60.3222 58.5952 61.6556 61.506 62.9889 64.4168C64.3222 67.3275 65.6556 70.2383 66.9889 73.0855C68.3222 75.9326 69.6556 78.7162 70.9889 81.3753C72.3222 84.0344 73.6556 86.5691 74.9889 88.924C76.3222 91.2788 77.6556 93.4539 78.9889 95.4015C80.3222 97.3492 81.6556 99.0695 82.9889 100.525C84.3222 101.98 85.6556 103.171 86.9889 104.07C88.3222 104.97 89.6556 105.578 90.9889 105.882C92.3222 106.187 93.6556 106.187 94.9889 105.882C96.3222 105.578 97.6556 104.97 98.9889 104.07C100.322 103.171 101.656 101.98 102.989 100.525C104.322 99.0695 105.656 97.3492 106.989 95.4015C108.322 93.4539 109.656 91.2788 110.989 88.924C112.322 86.5691 113.656 84.0344 114.989 81.3753C116.322 78.7162 117.656 75.9326 118.989 73.0855C120.322 70.2383 121.656 67.3275 122.989 64.4168C124.322 61.506 125.656 58.5953 126.989 55.7481C128.322 52.901 129.656 50.1174 130.989 47.4583C132.322 44.7992 133.656 42.2645 134.989 39.9096C136.322 37.5548 137.656 35.3797 138.989 33.4321C140.322 31.4844 141.656 29.7641 142.989 28.3087C144.322 26.8533 145.656 25.6629 146.989 24.7634C148.322 23.8639 149.656 23.2554 150.989 22.9511C152.322 22.6469 153.656 22.6469 154.989 22.9511C156.322 23.2554 157.656 23.8639 158.989 24.7634C160.322 25.6629 161.656 26.8533 162.989 28.3087C164.322 29.7641 165.656 31.4844 166.989 33.4321C168.322 35.3797 169.656 37.5548 170.989 39.9096C172.322 42.2645 173.656 44.7992 174.989 47.4583C176.322 50.1174 177.656 52.901 178.989 55.7481C180.322 58.5953 181.656 61.506 182.989 64.4168C184.322 67.3275 185.656 70.2383 186.989 73.0855C188.322 75.9326 189.656 78.7162 190.989 81.3753C192.322 84.0344 193.656 86.5691 194.989 88.924C196.322 91.2788 197.656 93.4539 198.989 95.4015C200.322 97.3492 201.656 99.0695 202.989 100.525C204.322 101.98 205.656 103.171 206.989 104.07C208.322 104.97 209.656 105.578 210.989 105.882C212.322 106.187 213.656 106.187 214.989 105.882C216.322 105.578 217.656 104.97 218.989 104.07C220.322 103.171 221.656 101.98 222.989 100.525C224.322 99.0695 225.656 97.3492 226.989 95.4015C228.322 93.4539 229.656 91.2788 230.989 88.924C232.322 86.5691 233.656 84.0344 234.989 81.3753C236.322 78.7162 237.656 75.9326 238.989 73.0855C240.322 70.2383 241.656 67.3275 242.989 64.4168" stroke="black" stroke-width="4" stroke-miterlimit="10" stroke-linecap="round"/>
<line x1="2.98891" y1="64.4223" x2="242.989" y2="64.4223" stroke="black" stroke-width="4"/>
<line x1="33.0379" y1="22.0804" x2="33.0379" y2="64.417" stroke="#0099FF" stroke-width="4"/>
<line x1="22.854" y1="22.6838" x2="42.3999" y2="22.6838" stroke="#0099FF" stroke-width="4"/>
<line x1="22.854" y1="64.4223" x2="42.3999" y2="64.4223" stroke="#0099FF" stroke-width="4"/>
<line x1="216.119" y1="106.086" x2="93.7451" y2="106.086" stroke="#0099FF" stroke-width="4"/>
<line x1="214.008" y1="96.3376" x2="214.008" y2="115.884" stroke="#0099FF" stroke-width="4"/>
<line x1="93.3624" y1="96.3376" x2="93.3624" y2="115.884" stroke="#0099FF" stroke-width="4"/>
<path d="M1.57469 104.696C0.793645 105.477 0.793645 106.744 1.57469 107.525L14.3026 120.253C15.0837 121.034 16.35 121.034 17.131 120.253C17.9121 119.472 17.9121 118.205 17.131 117.424L5.81733 106.111L17.131 94.7969C17.9121 94.0159 17.9121 92.7496 17.131 91.9685C16.35 91.1875 15.0837 91.1875 14.3026 91.9685L1.57469 104.696ZM65.2816 107.525C66.0627 106.744 66.0627 105.477 65.2816 104.696L52.5537 91.9685C51.7727 91.1874 50.5063 91.1874 49.7253 91.9685C48.9442 92.7495 48.9442 94.0159 49.7253 94.7969L61.039 106.111L49.7253 117.424C48.9442 118.205 48.9442 119.472 49.7253 120.253C50.5063 121.034 51.7727 121.034 52.5537 120.253L65.2816 107.525ZM2.98891 108.111L63.8674 108.111L63.8674 104.111L2.98891 104.111L2.98891 108.111Z" fill="#0099FF"/>
<path d="M2.61648 12.7328L5.89248 4.33285H7.35648L10.6085 12.7328H8.98848L7.18848 7.95685C7.14848 7.86085 7.09248 7.70885 7.02048 7.50085C6.95648 7.29285 6.88448 7.06885 6.80448 6.82885C6.72448 6.58085 6.65248 6.35285 6.58848 6.14485C6.52448 5.92885 6.47648 5.77285 6.44448 5.67685L6.74448 5.66485C6.69648 5.82485 6.64048 6.00485 6.57648 6.20485C6.51248 6.40485 6.44448 6.61285 6.37248 6.82885C6.30048 7.04485 6.22848 7.25285 6.15648 7.45285C6.09248 7.65285 6.03248 7.83285 5.97648 7.99285L4.17648 12.7328H2.61648ZM4.10448 10.8128L4.64448 9.45685H8.47248L9.04848 10.8128H4.10448ZM11.6434 12.7328V6.40885H13.0954L13.1194 7.68085L12.8794 7.77685C12.9514 7.56885 13.0594 7.37685 13.2034 7.20085C13.3474 7.01685 13.5194 6.86085 13.7194 6.73285C13.9194 6.59685 14.1314 6.49285 14.3554 6.42085C14.5794 6.34085 14.8074 6.30085 15.0394 6.30085C15.3834 6.30085 15.6874 6.35685 15.9514 6.46885C16.2234 6.57285 16.4474 6.74085 16.6234 6.97285C16.8074 7.20485 16.9434 7.50085 17.0314 7.86085L16.8034 7.81285L16.8994 7.62085C16.9874 7.42885 17.1114 7.25685 17.2714 7.10485C17.4314 6.94485 17.6114 6.80485 17.8114 6.68485C18.0114 6.55685 18.2194 6.46085 18.4354 6.39685C18.6594 6.33285 18.8794 6.30085 19.0954 6.30085C19.5754 6.30085 19.9754 6.39685 20.2954 6.58885C20.6154 6.78085 20.8554 7.07285 21.0154 7.46485C21.1754 7.85685 21.2554 8.34085 21.2554 8.91685V12.7328H19.7674V9.01285C19.7674 8.69285 19.7234 8.42885 19.6354 8.22085C19.5554 8.01285 19.4274 7.86085 19.2514 7.76485C19.0834 7.66085 18.8714 7.60885 18.6154 7.60885C18.4154 7.60885 18.2234 7.64485 18.0394 7.71685C17.8634 7.78085 17.7114 7.87685 17.5834 8.00485C17.4554 8.12485 17.3554 8.26485 17.2834 8.42485C17.2114 8.58485 17.1754 8.76085 17.1754 8.95285V12.7328H15.6874V9.00085C15.6874 8.69685 15.6434 8.44485 15.5554 8.24485C15.4674 8.03685 15.3394 7.88085 15.1714 7.77685C15.0034 7.66485 14.7994 7.60885 14.5594 7.60885C14.3594 7.60885 14.1714 7.64485 13.9954 7.71685C13.8194 7.78085 13.6674 7.87285 13.5394 7.99285C13.4114 8.11285 13.3114 8.25285 13.2394 8.41285C13.1674 8.57285 13.1314 8.74885 13.1314 8.94085V12.7328H11.6434ZM22.894 15.3728V6.40885H24.346L24.37 7.84885L24.118 7.74085C24.166 7.49285 24.302 7.26085 24.526 7.04485C24.75 6.82085 25.022 6.64085 25.342 6.50485C25.67 6.36885 26.01 6.30085 26.362 6.30085C26.922 6.30085 27.418 6.44085 27.85 6.72085C28.29 7.00085 28.634 7.38485 28.882 7.87285C29.138 8.36085 29.266 8.92485 29.266 9.56485C29.266 10.1968 29.138 10.7608 28.882 11.2568C28.634 11.7448 28.29 12.1328 27.85 12.4208C27.418 12.7008 26.93 12.8408 26.386 12.8408C26.018 12.8408 25.662 12.7688 25.318 12.6248C24.982 12.4808 24.694 12.2928 24.454 12.0608C24.222 11.8288 24.078 11.5848 24.022 11.3288L24.382 11.1608V15.3728H22.894ZM26.086 11.5328C26.422 11.5328 26.722 11.4488 26.986 11.2808C27.25 11.1128 27.454 10.8808 27.598 10.5848C27.75 10.2888 27.826 9.94885 27.826 9.56485C27.826 9.18085 27.754 8.84485 27.61 8.55685C27.466 8.26085 27.262 8.02885 26.998 7.86085C26.734 7.69285 26.43 7.60885 26.086 7.60885C25.734 7.60885 25.426 7.69285 25.162 7.86085C24.906 8.02085 24.702 8.24885 24.55 8.54485C24.398 8.84085 24.322 9.18085 24.322 9.56485C24.322 9.94885 24.398 10.2888 24.55 10.5848C24.702 10.8808 24.906 11.1128 25.162 11.2808C25.426 11.4488 25.734 11.5328 26.086 11.5328ZM30.5935 12.7328V3.85285H32.0815V12.7328H30.5935ZM33.9838 12.7328V6.40885H35.4598V12.7328H33.9838ZM34.7038 5.06485C34.4078 5.06485 34.1758 4.99285 34.0078 4.84885C33.8478 4.69685 33.7678 4.48485 33.7678 4.21285C33.7678 3.95685 33.8518 3.74885 34.0198 3.58885C34.1878 3.42885 34.4158 3.34885 34.7038 3.34885C35.0078 3.34885 35.2398 3.42485 35.3998 3.57685C35.5678 3.72085 35.6518 3.93285 35.6518 4.21285C35.6518 4.46085 35.5678 4.66485 35.3998 4.82485C35.2318 4.98485 34.9998 5.06485 34.7038 5.06485ZM38.0155 12.7328V4.80085H39.4915V12.7328H38.0155ZM36.7675 7.77685V6.40885H40.8715V7.77685H36.7675ZM44.1915 12.8528C43.7355 12.8528 43.3395 12.7528 43.0035 12.5528C42.6675 12.3448 42.4115 12.0528 42.2355 11.6768C42.0595 11.2928 41.9715 10.8368 41.9715 10.3088V6.40885H43.4475V9.99685C43.4475 10.3328 43.4995 10.6208 43.6035 10.8608C43.7075 11.0928 43.8595 11.2728 44.0595 11.4008C44.2595 11.5288 44.4995 11.5928 44.7795 11.5928C44.9875 11.5928 45.1755 11.5608 45.3435 11.4968C45.5195 11.4248 45.6715 11.3288 45.7995 11.2088C45.9275 11.0808 46.0275 10.9328 46.0995 10.7648C46.1715 10.5888 46.2075 10.4008 46.2075 10.2008V6.40885H47.6835V12.7328H46.2435L46.2195 11.4128L46.4835 11.2688C46.3875 11.5728 46.2235 11.8448 45.9915 12.0848C45.7675 12.3168 45.4995 12.5048 45.1875 12.6488C44.8755 12.7848 44.5435 12.8528 44.1915 12.8528ZM51.9575 12.8528C51.3975 12.8528 50.8935 12.7128 50.4455 12.4328C50.0055 12.1448 49.6535 11.7568 49.3895 11.2688C49.1335 10.7728 49.0055 10.2048 49.0055 9.56485C49.0055 8.93285 49.1335 8.36885 49.3895 7.87285C49.6455 7.37685 49.9935 6.98885 50.4335 6.70885C50.8815 6.42085 51.3855 6.27685 51.9455 6.27685C52.2495 6.27685 52.5415 6.32485 52.8215 6.42085C53.1095 6.51685 53.3655 6.64885 53.5895 6.81685C53.8135 6.97685 53.9895 7.15685 54.1175 7.35685C54.2535 7.55685 54.3295 7.76485 54.3455 7.98085L53.9495 8.02885V3.85285H55.4255V12.7328H53.9975L53.9615 11.2448L54.2495 11.2688C54.2415 11.4688 54.1695 11.6608 54.0335 11.8448C53.9055 12.0288 53.7375 12.1968 53.5295 12.3488C53.3215 12.5008 53.0775 12.6248 52.7975 12.7208C52.5255 12.8088 52.2455 12.8528 51.9575 12.8528ZM52.2455 11.6048C52.5895 11.6048 52.8935 11.5168 53.1575 11.3408C53.4215 11.1648 53.6255 10.9248 53.7695 10.6208C53.9215 10.3168 53.9975 9.96485 53.9975 9.56485C53.9975 9.17285 53.9215 8.82485 53.7695 8.52085C53.6255 8.20885 53.4215 7.96885 53.1575 7.80085C52.8935 7.62485 52.5895 7.53685 52.2455 7.53685C51.9015 7.53685 51.5975 7.62485 51.3335 7.80085C51.0695 7.96885 50.8615 8.20885 50.7095 8.52085C50.5655 8.82485 50.4935 9.17285 50.4935 9.56485C50.4935 9.96485 50.5655 10.3168 50.7095 10.6208C50.8615 10.9248 51.0695 11.1648 51.3335 11.3408C51.5975 11.5168 51.9015 11.6048 52.2455 11.6048ZM60.065 12.8528C59.401 12.8528 58.813 12.7128 58.301 12.4328C57.797 12.1528 57.401 11.7728 57.113 11.2928C56.833 10.8048 56.693 10.2488 56.693 9.62485C56.693 9.12885 56.773 8.67685 56.933 8.26885C57.093 7.86085 57.313 7.50885 57.593 7.21285C57.881 6.90885 58.221 6.67685 58.613 6.51685C59.013 6.34885 59.449 6.26485 59.921 6.26485C60.337 6.26485 60.725 6.34485 61.085 6.50485C61.445 6.66485 61.757 6.88485 62.021 7.16485C62.285 7.43685 62.485 7.76485 62.621 8.14885C62.765 8.52485 62.833 8.93685 62.825 9.38485L62.813 9.90085H57.689L57.413 8.89285H61.577L61.385 9.09685V8.83285C61.361 8.58485 61.281 8.36885 61.145 8.18485C61.009 7.99285 60.833 7.84485 60.617 7.74085C60.409 7.62885 60.177 7.57285 59.921 7.57285C59.529 7.57285 59.197 7.64885 58.925 7.80085C58.661 7.95285 58.461 8.17285 58.325 8.46085C58.189 8.74085 58.121 9.09285 58.121 9.51685C58.121 9.92485 58.205 10.2808 58.373 10.5848C58.549 10.8888 58.793 11.1248 59.105 11.2928C59.425 11.4528 59.797 11.5328 60.221 11.5328C60.517 11.5328 60.789 11.4848 61.037 11.3888C61.285 11.2928 61.553 11.1208 61.841 10.8728L62.573 11.8928C62.357 12.0928 62.109 12.2648 61.829 12.4088C61.557 12.5448 61.269 12.6528 60.965 12.7328C60.661 12.8128 60.361 12.8528 60.065 12.8528Z" fill="#0099FF"/>
<path d="M122.18 143.991L119.564 135.591H121.196L122.684 140.547C122.732 140.699 122.776 140.867 122.816 141.051C122.856 141.235 122.892 141.419 122.924 141.603C122.956 141.779 122.984 141.943 123.008 142.095C123.032 142.247 123.056 142.375 123.08 142.479L122.756 142.467C122.852 142.091 122.928 141.787 122.984 141.555C123.04 141.323 123.088 141.131 123.128 140.979C123.176 140.819 123.224 140.671 123.272 140.535L124.688 136.911H126.02L127.4 140.535C127.48 140.759 127.552 140.975 127.616 141.183C127.68 141.383 127.732 141.583 127.772 141.783C127.82 141.975 127.864 142.175 127.904 142.383L127.616 142.443C127.648 142.251 127.672 142.095 127.688 141.975C127.704 141.855 127.72 141.747 127.736 141.651C127.752 141.555 127.768 141.463 127.784 141.375C127.8 141.279 127.824 141.167 127.856 141.039C127.896 140.903 127.944 140.731 128 140.523L129.476 135.591H131.096L128.468 143.991H127.34L125.204 138.879L125.348 138.927L123.32 143.991H122.18ZM134.248 144.111C133.728 144.111 133.256 143.967 132.832 143.679C132.408 143.391 132.068 142.999 131.812 142.503C131.556 142.007 131.428 141.443 131.428 140.811C131.428 140.179 131.556 139.615 131.812 139.119C132.068 138.623 132.416 138.235 132.856 137.955C133.296 137.675 133.792 137.535 134.344 137.535C134.664 137.535 134.956 137.583 135.22 137.679C135.484 137.767 135.716 137.895 135.916 138.063C136.116 138.231 136.28 138.423 136.408 138.639C136.544 138.855 136.636 139.087 136.684 139.335L136.36 139.251V137.667H137.848V143.991H136.348V142.479L136.696 142.419C136.64 142.635 136.536 142.847 136.384 143.055C136.24 143.255 136.056 143.435 135.832 143.595C135.616 143.747 135.372 143.871 135.1 143.967C134.836 144.063 134.552 144.111 134.248 144.111ZM134.656 142.803C135 142.803 135.304 142.719 135.568 142.551C135.832 142.383 136.036 142.151 136.18 141.855C136.332 141.551 136.408 141.203 136.408 140.811C136.408 140.427 136.332 140.087 136.18 139.791C136.036 139.495 135.832 139.263 135.568 139.095C135.304 138.927 135 138.843 134.656 138.843C134.312 138.843 134.008 138.927 133.744 139.095C133.488 139.263 133.288 139.495 133.144 139.791C133 140.087 132.928 140.427 132.928 140.811C132.928 141.203 133 141.551 133.144 141.855C133.288 142.151 133.488 142.383 133.744 142.551C134.008 142.719 134.312 142.803 134.656 142.803ZM141.447 143.991L138.783 137.667H140.391L142.191 142.395L141.879 142.479L143.775 137.667H145.347L142.551 143.991H141.447ZM149.215 144.111C148.551 144.111 147.963 143.971 147.451 143.691C146.947 143.411 146.551 143.031 146.263 142.551C145.983 142.063 145.843 141.507 145.843 140.883C145.843 140.387 145.923 139.935 146.083 139.527C146.243 139.119 146.463 138.767 146.743 138.471C147.031 138.167 147.371 137.935 147.763 137.775C148.163 137.607 148.599 137.523 149.071 137.523C149.487 137.523 149.875 137.603 150.235 137.763C150.595 137.923 150.907 138.143 151.171 138.423C151.435 138.695 151.635 139.023 151.771 139.407C151.915 139.783 151.983 140.195 151.975 140.643L151.963 141.159H146.839L146.563 140.151H150.727L150.535 140.355V140.091C150.511 139.843 150.431 139.627 150.295 139.443C150.159 139.251 149.983 139.103 149.767 138.999C149.559 138.887 149.327 138.831 149.071 138.831C148.679 138.831 148.347 138.907 148.075 139.059C147.811 139.211 147.611 139.431 147.475 139.719C147.339 139.999 147.271 140.351 147.271 140.775C147.271 141.183 147.355 141.539 147.523 141.843C147.699 142.147 147.943 142.383 148.255 142.551C148.575 142.711 148.947 142.791 149.371 142.791C149.667 142.791 149.939 142.743 150.187 142.647C150.435 142.551 150.703 142.379 150.991 142.131L151.723 143.151C151.507 143.351 151.259 143.523 150.979 143.667C150.707 143.803 150.419 143.911 150.115 143.991C149.811 144.071 149.511 144.111 149.215 144.111ZM153.294 143.991V135.111H154.782V143.991H153.294ZM159.363 144.111C158.699 144.111 158.111 143.971 157.599 143.691C157.095 143.411 156.699 143.031 156.411 142.551C156.131 142.063 155.991 141.507 155.991 140.883C155.991 140.387 156.071 139.935 156.231 139.527C156.391 139.119 156.611 138.767 156.891 138.471C157.179 138.167 157.519 137.935 157.911 137.775C158.311 137.607 158.747 137.523 159.219 137.523C159.635 137.523 160.023 137.603 160.383 137.763C160.743 137.923 161.055 138.143 161.319 138.423C161.583 138.695 161.783 139.023 161.919 139.407C162.063 139.783 162.131 140.195 162.123 140.643L162.111 141.159H156.987L156.711 140.151H160.875L160.683 140.355V140.091C160.659 139.843 160.579 139.627 160.443 139.443C160.307 139.251 160.131 139.103 159.915 138.999C159.707 138.887 159.475 138.831 159.219 138.831C158.827 138.831 158.495 138.907 158.223 139.059C157.959 139.211 157.759 139.431 157.623 139.719C157.487 139.999 157.419 140.351 157.419 140.775C157.419 141.183 157.503 141.539 157.671 141.843C157.847 142.147 158.091 142.383 158.403 142.551C158.723 142.711 159.095 142.791 159.519 142.791C159.815 142.791 160.087 142.743 160.335 142.647C160.583 142.551 160.851 142.379 161.139 142.131L161.871 143.151C161.655 143.351 161.407 143.523 161.127 143.667C160.855 143.803 160.567 143.911 160.263 143.991C159.959 144.071 159.659 144.111 159.363 144.111ZM163.431 143.991V137.667H164.871L164.895 138.963L164.619 139.107C164.699 138.819 164.855 138.559 165.087 138.327C165.319 138.087 165.595 137.895 165.915 137.751C166.235 137.607 166.563 137.535 166.899 137.535C167.379 137.535 167.779 137.631 168.099 137.823C168.427 138.015 168.671 138.303 168.831 138.687C168.999 139.071 169.083 139.551 169.083 140.127V143.991H167.607V140.235C167.607 139.915 167.563 139.651 167.475 139.443C167.387 139.227 167.251 139.071 167.067 138.975C166.883 138.871 166.659 138.823 166.395 138.831C166.179 138.831 165.979 138.867 165.795 138.939C165.619 139.003 165.463 139.099 165.327 139.227C165.199 139.347 165.095 139.487 165.015 139.647C164.943 139.807 164.907 139.983 164.907 140.175V143.991H164.175C164.031 143.991 163.895 143.991 163.767 143.991C163.647 143.991 163.535 143.991 163.431 143.991ZM173.587 146.751C173.115 146.751 172.643 146.679 172.171 146.535C171.707 146.391 171.331 146.203 171.043 145.971L171.571 144.879C171.739 144.999 171.927 145.103 172.135 145.191C172.343 145.279 172.563 145.347 172.795 145.395C173.035 145.443 173.271 145.467 173.503 145.467C173.927 145.467 174.279 145.399 174.559 145.263C174.847 145.135 175.063 144.935 175.207 144.663C175.351 144.399 175.423 144.067 175.423 143.667V142.503L175.639 142.587C175.591 142.835 175.459 143.071 175.243 143.295C175.027 143.519 174.755 143.703 174.427 143.847C174.099 143.983 173.763 144.051 173.419 144.051C172.819 144.051 172.287 143.911 171.823 143.631C171.367 143.351 171.003 142.971 170.731 142.491C170.467 142.003 170.335 141.443 170.335 140.811C170.335 140.179 170.467 139.619 170.731 139.131C170.995 138.635 171.355 138.247 171.811 137.967C172.275 137.679 172.795 137.535 173.371 137.535C173.611 137.535 173.843 137.563 174.067 137.619C174.291 137.675 174.495 137.755 174.679 137.859C174.871 137.963 175.043 138.079 175.195 138.207C175.347 138.335 175.471 138.471 175.567 138.615C175.663 138.759 175.723 138.899 175.747 139.035L175.435 139.131L175.459 137.667H176.911V143.559C176.911 144.071 176.835 144.523 176.683 144.915C176.531 145.307 176.311 145.639 176.023 145.911C175.735 146.191 175.387 146.399 174.979 146.535C174.571 146.679 174.107 146.751 173.587 146.751ZM173.647 142.791C174.007 142.791 174.323 142.707 174.595 142.539C174.875 142.371 175.091 142.139 175.243 141.843C175.395 141.547 175.471 141.207 175.471 140.823C175.471 140.431 175.391 140.087 175.231 139.791C175.079 139.487 174.867 139.251 174.595 139.083C174.323 138.915 174.007 138.831 173.647 138.831C173.287 138.831 172.971 138.919 172.699 139.095C172.427 139.263 172.211 139.499 172.051 139.803C171.899 140.099 171.823 140.439 171.823 140.823C171.823 141.199 171.899 141.539 172.051 141.843C172.211 142.139 172.427 142.371 172.699 142.539C172.971 142.707 173.287 142.791 173.647 142.791ZM179.302 143.991V136.059H180.778V143.991H179.302ZM178.054 139.035V137.667H182.158V139.035H178.054ZM183.282 143.991V135.111H184.746V138.963L184.47 139.107C184.55 138.819 184.706 138.559 184.938 138.327C185.17 138.087 185.446 137.895 185.766 137.751C186.086 137.607 186.414 137.535 186.75 137.535C187.23 137.535 187.63 137.631 187.95 137.823C188.278 138.015 188.522 138.303 188.682 138.687C188.85 139.071 188.934 139.551 188.934 140.127V143.991H187.458V140.235C187.458 139.915 187.414 139.651 187.326 139.443C187.238 139.227 187.102 139.071 186.918 138.975C186.734 138.871 186.51 138.823 186.246 138.831C186.03 138.831 185.83 138.867 185.646 138.939C185.47 139.003 185.314 139.099 185.178 139.227C185.05 139.347 184.946 139.487 184.866 139.647C184.794 139.807 184.758 139.983 184.758 140.175V143.991H184.026C183.882 143.991 183.746 143.991 183.618 143.991C183.498 143.991 183.386 143.991 183.282 143.991Z" fill="#0099FF"/>
<path d="M120.488 127.884V119.484H122.048V127.884H120.488ZM121.208 124.44V123.024H125.54V124.44H121.208ZM121.208 120.924V119.484H126.056V120.924H121.208ZM127.419 127.884V121.56H128.871L128.895 123.576L128.691 123.12C128.779 122.8 128.931 122.512 129.147 122.256C129.363 122 129.611 121.8 129.891 121.656C130.179 121.504 130.479 121.428 130.791 121.428C130.927 121.428 131.055 121.44 131.175 121.464C131.303 121.488 131.407 121.516 131.487 121.548L131.091 123.168C131.003 123.12 130.895 123.08 130.767 123.048C130.639 123.016 130.511 123 130.383 123C130.183 123 129.991 123.04 129.807 123.12C129.631 123.192 129.475 123.296 129.339 123.432C129.203 123.568 129.095 123.728 129.015 123.912C128.943 124.088 128.907 124.288 128.907 124.512V127.884H127.419ZM135.164 128.004C134.5 128.004 133.912 127.864 133.4 127.584C132.896 127.304 132.5 126.924 132.212 126.444C131.932 125.956 131.792 125.4 131.792 124.776C131.792 124.28 131.872 123.828 132.032 123.42C132.192 123.012 132.412 122.66 132.692 122.364C132.98 122.06 133.32 121.828 133.712 121.668C134.112 121.5 134.548 121.416 135.02 121.416C135.436 121.416 135.824 121.496 136.184 121.656C136.544 121.816 136.856 122.036 137.12 122.316C137.384 122.588 137.584 122.916 137.72 123.3C137.864 123.676 137.932 124.088 137.924 124.536L137.912 125.052H132.788L132.512 124.044H136.676L136.484 124.248V123.984C136.46 123.736 136.38 123.52 136.244 123.336C136.108 123.144 135.932 122.996 135.716 122.892C135.508 122.78 135.276 122.724 135.02 122.724C134.628 122.724 134.296 122.8 134.024 122.952C133.76 123.104 133.56 123.324 133.424 123.612C133.288 123.892 133.22 124.244 133.22 124.668C133.22 125.076 133.304 125.432 133.472 125.736C133.648 126.04 133.892 126.276 134.204 126.444C134.524 126.604 134.896 126.684 135.32 126.684C135.616 126.684 135.888 126.636 136.136 126.54C136.384 126.444 136.652 126.272 136.94 126.024L137.672 127.044C137.456 127.244 137.208 127.416 136.928 127.56C136.656 127.696 136.368 127.804 136.064 127.884C135.76 127.964 135.46 128.004 135.164 128.004ZM143.707 130.524V126.372L144.007 126.408C143.999 126.6 143.927 126.792 143.791 126.984C143.663 127.168 143.491 127.34 143.275 127.5C143.067 127.652 142.831 127.776 142.567 127.872C142.311 127.96 142.043 128.004 141.763 128.004C141.203 128.004 140.699 127.864 140.251 127.584C139.811 127.296 139.463 126.904 139.207 126.408C138.951 125.912 138.823 125.348 138.823 124.716C138.823 124.076 138.947 123.512 139.195 123.024C139.451 122.528 139.795 122.14 140.227 121.86C140.667 121.572 141.167 121.428 141.727 121.428C142.031 121.428 142.323 121.476 142.603 121.572C142.883 121.668 143.135 121.796 143.359 121.956C143.583 122.116 143.759 122.296 143.887 122.496C144.023 122.696 144.095 122.9 144.103 123.108L143.719 123.144L143.743 121.548H145.183V130.524H143.707ZM142.003 126.696C142.347 126.696 142.651 126.612 142.915 126.444C143.179 126.276 143.383 126.044 143.527 125.748C143.679 125.452 143.755 125.108 143.755 124.716C143.755 124.324 143.679 123.98 143.527 123.684C143.383 123.38 143.179 123.144 142.915 122.976C142.651 122.808 142.347 122.724 142.003 122.724C141.659 122.724 141.355 122.812 141.091 122.988C140.827 123.156 140.619 123.392 140.467 123.696C140.323 123.992 140.251 124.332 140.251 124.716C140.251 125.1 140.323 125.444 140.467 125.748C140.619 126.044 140.827 126.276 141.091 126.444C141.355 126.612 141.659 126.696 142.003 126.696ZM149.103 128.004C148.647 128.004 148.251 127.904 147.915 127.704C147.579 127.496 147.323 127.204 147.147 126.828C146.971 126.444 146.883 125.988 146.883 125.46V121.56H148.359V125.148C148.359 125.484 148.411 125.772 148.515 126.012C148.619 126.244 148.771 126.424 148.971 126.552C149.171 126.68 149.411 126.744 149.691 126.744C149.899 126.744 150.087 126.712 150.255 126.648C150.431 126.576 150.583 126.48 150.711 126.36C150.839 126.232 150.939 126.084 151.011 125.916C151.083 125.74 151.119 125.552 151.119 125.352V121.56H152.595V127.884H151.155L151.131 126.564L151.395 126.42C151.299 126.724 151.135 126.996 150.903 127.236C150.679 127.468 150.411 127.656 150.099 127.8C149.787 127.936 149.455 128.004 149.103 128.004ZM157.289 128.004C156.625 128.004 156.037 127.864 155.525 127.584C155.021 127.304 154.625 126.924 154.337 126.444C154.057 125.956 153.917 125.4 153.917 124.776C153.917 124.28 153.997 123.828 154.157 123.42C154.317 123.012 154.537 122.66 154.817 122.364C155.105 122.06 155.445 121.828 155.837 121.668C156.237 121.5 156.673 121.416 157.145 121.416C157.561 121.416 157.949 121.496 158.309 121.656C158.669 121.816 158.981 122.036 159.245 122.316C159.509 122.588 159.709 122.916 159.845 123.3C159.989 123.676 160.057 124.088 160.049 124.536L160.037 125.052H154.913L154.637 124.044H158.801L158.609 124.248V123.984C158.585 123.736 158.505 123.52 158.369 123.336C158.233 123.144 158.057 122.996 157.841 122.892C157.633 122.78 157.401 122.724 157.145 122.724C156.753 122.724 156.421 122.8 156.149 122.952C155.885 123.104 155.685 123.324 155.549 123.612C155.413 123.892 155.345 124.244 155.345 124.668C155.345 125.076 155.429 125.432 155.597 125.736C155.773 126.04 156.017 126.276 156.329 126.444C156.649 126.604 157.021 126.684 157.445 126.684C157.741 126.684 158.013 126.636 158.261 126.54C158.509 126.444 158.777 126.272 159.065 126.024L159.797 127.044C159.581 127.244 159.333 127.416 159.053 127.56C158.781 127.696 158.493 127.804 158.189 127.884C157.885 127.964 157.585 128.004 157.289 128.004ZM161.356 127.884V121.56H162.796L162.82 122.856L162.544 123C162.624 122.712 162.78 122.452 163.012 122.22C163.244 121.98 163.52 121.788 163.84 121.644C164.16 121.5 164.488 121.428 164.824 121.428C165.304 121.428 165.704 121.524 166.024 121.716C166.352 121.908 166.596 122.196 166.756 122.58C166.924 122.964 167.008 123.444 167.008 124.02V127.884H165.532V124.128C165.532 123.808 165.488 123.544 165.4 123.336C165.312 123.12 165.176 122.964 164.992 122.868C164.808 122.764 164.584 122.716 164.32 122.724C164.104 122.724 163.904 122.76 163.72 122.832C163.544 122.896 163.388 122.992 163.252 123.12C163.124 123.24 163.02 123.38 162.94 123.54C162.868 123.7 162.832 123.876 162.832 124.068V127.884H162.1C161.956 127.884 161.82 127.884 161.692 127.884C161.572 127.884 161.46 127.884 161.356 127.884ZM171.381 128.004C170.789 128.004 170.257 127.86 169.785 127.572C169.313 127.284 168.941 126.892 168.669 126.396C168.397 125.9 168.261 125.34 168.261 124.716C168.261 124.092 168.397 123.532 168.669 123.036C168.941 122.54 169.313 122.148 169.785 121.86C170.257 121.572 170.789 121.428 171.381 121.428C171.949 121.428 172.465 121.536 172.929 121.752C173.393 121.968 173.753 122.268 174.009 122.652L173.193 123.636C173.073 123.468 172.921 123.316 172.737 123.18C172.553 123.044 172.357 122.936 172.149 122.856C171.941 122.776 171.733 122.736 171.525 122.736C171.173 122.736 170.857 122.824 170.577 123C170.305 123.168 170.089 123.404 169.929 123.708C169.769 124.004 169.689 124.34 169.689 124.716C169.689 125.092 169.769 125.428 169.929 125.724C170.097 126.02 170.321 126.256 170.601 126.432C170.881 126.608 171.193 126.696 171.537 126.696C171.745 126.696 171.945 126.664 172.137 126.6C172.337 126.528 172.525 126.428 172.701 126.3C172.877 126.172 173.041 126.012 173.193 125.82L174.009 126.816C173.737 127.168 173.361 127.456 172.881 127.68C172.409 127.896 171.909 128.004 171.381 128.004ZM175.922 130.644L177.266 127.536L177.278 128.52L174.158 121.56H175.862L177.602 125.688C177.658 125.792 177.714 125.932 177.77 126.108C177.826 126.276 177.874 126.444 177.914 126.612L177.614 126.708C177.67 126.556 177.73 126.396 177.794 126.228C177.858 126.052 177.918 125.872 177.974 125.688L179.462 121.56H181.178L178.538 127.884L177.458 130.644H175.922ZM184.93 129.504L189.898 119.484H191.338L186.394 129.504H184.93Z" fill="#0099FF"/>
<path d="M12.2018 133.991L8.84183 125.591H10.5458L12.4178 130.403C12.5138 130.651 12.5978 130.875 12.6698 131.075C12.7418 131.267 12.8058 131.443 12.8618 131.603C12.9178 131.763 12.9658 131.919 13.0058 132.071C13.0538 132.223 13.1058 132.383 13.1618 132.551H12.8258C12.8818 132.335 12.9418 132.123 13.0058 131.915C13.0698 131.699 13.1418 131.471 13.2218 131.231C13.3098 130.991 13.4138 130.715 13.5338 130.403L15.2858 125.591H17.0018L13.6178 133.991H12.2018ZM20.3174 134.111C19.6534 134.111 19.0654 133.971 18.5534 133.691C18.0494 133.411 17.6534 133.031 17.3654 132.551C17.0854 132.063 16.9454 131.507 16.9454 130.883C16.9454 130.387 17.0254 129.935 17.1854 129.527C17.3454 129.119 17.5654 128.767 17.8454 128.471C18.1334 128.167 18.4734 127.935 18.8654 127.775C19.2654 127.607 19.7014 127.523 20.1734 127.523C20.5894 127.523 20.9774 127.603 21.3374 127.763C21.6974 127.923 22.0094 128.143 22.2734 128.423C22.5374 128.695 22.7374 129.023 22.8734 129.407C23.0174 129.783 23.0854 130.195 23.0774 130.643L23.0654 131.159H17.9414L17.6654 130.151H21.8294L21.6374 130.355V130.091C21.6134 129.843 21.5334 129.627 21.3974 129.443C21.2614 129.251 21.0854 129.103 20.8694 128.999C20.6614 128.887 20.4294 128.831 20.1734 128.831C19.7814 128.831 19.4494 128.907 19.1774 129.059C18.9134 129.211 18.7134 129.431 18.5774 129.719C18.4414 129.999 18.3734 130.351 18.3734 130.775C18.3734 131.183 18.4574 131.539 18.6254 131.843C18.8014 132.147 19.0454 132.383 19.3574 132.551C19.6774 132.711 20.0494 132.791 20.4734 132.791C20.7694 132.791 21.0414 132.743 21.2894 132.647C21.5374 132.551 21.8054 132.379 22.0934 132.131L22.8254 133.151C22.6094 133.351 22.3614 133.523 22.0814 133.667C21.8094 133.803 21.5214 133.911 21.2174 133.991C20.9134 134.071 20.6134 134.111 20.3174 134.111ZM24.3966 133.991V125.111H25.8846V133.991H24.3966ZM30.3938 134.111C29.7618 134.111 29.1978 133.971 28.7018 133.691C28.2058 133.403 27.8138 133.011 27.5258 132.515C27.2378 132.019 27.0938 131.455 27.0938 130.823C27.0938 130.191 27.2378 129.627 27.5258 129.131C27.8138 128.635 28.2058 128.247 28.7018 127.967C29.1978 127.679 29.7618 127.535 30.3938 127.535C31.0178 127.535 31.5778 127.679 32.0738 127.967C32.5698 128.247 32.9578 128.635 33.2378 129.131C33.5258 129.627 33.6698 130.191 33.6698 130.823C33.6698 131.455 33.5258 132.019 33.2378 132.515C32.9578 133.011 32.5698 133.403 32.0738 133.691C31.5778 133.971 31.0178 134.111 30.3938 134.111ZM30.3938 132.803C30.7378 132.803 31.0418 132.715 31.3058 132.539C31.5778 132.363 31.7898 132.127 31.9418 131.831C32.1018 131.535 32.1778 131.199 32.1698 130.823C32.1778 130.439 32.1018 130.099 31.9418 129.803C31.7898 129.507 31.5778 129.275 31.3058 129.107C31.0418 128.931 30.7378 128.843 30.3938 128.843C30.0498 128.843 29.7378 128.931 29.4578 129.107C29.1858 129.275 28.9738 129.511 28.8218 129.815C28.6698 130.111 28.5938 130.447 28.5938 130.823C28.5938 131.199 28.6698 131.535 28.8218 131.831C28.9738 132.127 29.1858 132.363 29.4578 132.539C29.7378 132.715 30.0498 132.803 30.3938 132.803ZM37.7021 134.111C37.1101 134.111 36.5781 133.967 36.1061 133.679C35.6341 133.391 35.2621 132.999 34.9901 132.503C34.7181 132.007 34.5821 131.447 34.5821 130.823C34.5821 130.199 34.7181 129.639 34.9901 129.143C35.2621 128.647 35.6341 128.255 36.1061 127.967C36.5781 127.679 37.1101 127.535 37.7021 127.535C38.2701 127.535 38.7861 127.643 39.2501 127.859C39.7141 128.075 40.0741 128.375 40.3301 128.759L39.5141 129.743C39.3941 129.575 39.2421 129.423 39.0581 129.287C38.8741 129.151 38.6781 129.043 38.4701 128.963C38.2621 128.883 38.0541 128.843 37.8461 128.843C37.4941 128.843 37.1781 128.931 36.8981 129.107C36.6261 129.275 36.4101 129.511 36.2501 129.815C36.0901 130.111 36.0101 130.447 36.0101 130.823C36.0101 131.199 36.0901 131.535 36.2501 131.831C36.4181 132.127 36.6421 132.363 36.9221 132.539C37.2021 132.715 37.5141 132.803 37.8581 132.803C38.0661 132.803 38.2661 132.771 38.4581 132.707C38.6581 132.635 38.8461 132.535 39.0221 132.407C39.1981 132.279 39.3621 132.119 39.5141 131.927L40.3301 132.923C40.0581 133.275 39.6821 133.563 39.2021 133.787C38.7301 134.003 38.2301 134.111 37.7021 134.111ZM41.6269 133.991V127.667H43.1029V133.991H41.6269ZM42.3469 126.323C42.0509 126.323 41.8189 126.251 41.6509 126.107C41.4909 125.955 41.4109 125.743 41.4109 125.471C41.4109 125.215 41.4949 125.007 41.6629 124.847C41.8309 124.687 42.0589 124.607 42.3469 124.607C42.6509 124.607 42.8829 124.683 43.0429 124.835C43.2109 124.979 43.2949 125.191 43.2949 125.471C43.2949 125.719 43.2109 125.923 43.0429 126.083C42.8749 126.243 42.6429 126.323 42.3469 126.323ZM45.6585 133.991V126.059H47.1345V133.991H45.6585ZM44.4105 129.035V127.667H48.5145V129.035H44.4105ZM50.5986 136.751L51.9426 133.643L51.9546 134.627L48.8346 127.667H50.5386L52.2786 131.795C52.3346 131.899 52.3906 132.039 52.4466 132.215C52.5026 132.383 52.5506 132.551 52.5906 132.719L52.2906 132.815C52.3466 132.663 52.4066 132.503 52.4706 132.335C52.5346 132.159 52.5946 131.979 52.6506 131.795L54.1386 127.667H55.8546L53.2146 133.991L52.1346 136.751H50.5986Z" fill="#0099FF"/>
</svg>
