<svg width="245" height="115" viewBox="0 0 245 115" fill="none" xmlns="http://www.w3.org/2000/svg">
<path d="M8.10121 12.7773V4.37727H9.66121V12.7773H8.10121ZM2.71321 12.7773V4.37727H4.27321V12.7773H2.71321ZM3.36121 9.32127V7.85727H8.85721V9.32127H3.36121ZM11.8281 12.7773V6.45327H13.3041V12.7773H11.8281ZM12.5481 5.10927C12.2521 5.10927 12.0201 5.03727 11.8521 4.89327C11.6921 4.74127 11.6121 4.52927 11.6121 4.25727C11.6121 4.00127 11.6961 3.79327 11.8641 3.63327C12.0321 3.47327 12.2601 3.39327 12.5481 3.39327C12.8521 3.39327 13.0841 3.46927 13.2441 3.62127C13.4121 3.76527 13.4961 3.97727 13.4961 4.25727C13.4961 4.50527 13.4121 4.70927 13.2441 4.86927C13.0761 5.02927 12.8441 5.10927 12.5481 5.10927ZM18.0198 15.5373C17.5478 15.5373 17.0758 15.4653 16.6038 15.3213C16.1398 15.1773 15.7638 14.9893 15.4758 14.7573L16.0038 13.6653C16.1718 13.7853 16.3598 13.8893 16.5678 13.9773C16.7758 14.0653 16.9958 14.1333 17.2278 14.1813C17.4678 14.2293 17.7038 14.2533 17.9358 14.2533C18.3598 14.2533 18.7118 14.1853 18.9918 14.0493C19.2798 13.9213 19.4958 13.7213 19.6398 13.4493C19.7838 13.1853 19.8558 12.8533 19.8558 12.4533V11.2893L20.0718 11.3733C20.0238 11.6213 19.8918 11.8573 19.6758 12.0813C19.4598 12.3053 19.1878 12.4893 18.8598 12.6333C18.5318 12.7693 18.1958 12.8373 17.8518 12.8373C17.2518 12.8373 16.7198 12.6973 16.2558 12.4173C15.7998 12.1373 15.4358 11.7573 15.1638 11.2773C14.8998 10.7893 14.7678 10.2293 14.7678 9.59727C14.7678 8.96527 14.8998 8.40527 15.1638 7.91727C15.4278 7.42127 15.7878 7.03327 16.2438 6.75327C16.7078 6.46527 17.2278 6.32127 17.8038 6.32127C18.0438 6.32127 18.2758 6.34927 18.4998 6.40527C18.7238 6.46127 18.9278 6.54127 19.1118 6.64527C19.3038 6.74927 19.4758 6.86527 19.6278 6.99327C19.7798 7.12127 19.9038 7.25727 19.9998 7.40127C20.0958 7.54527 20.1558 7.68527 20.1798 7.82127L19.8678 7.91727L19.8918 6.45327H21.3438V12.3453C21.3438 12.8573 21.2678 13.3093 21.1158 13.7013C20.9638 14.0933 20.7438 14.4253 20.4558 14.6973C20.1678 14.9773 19.8198 15.1853 19.4118 15.3213C19.0038 15.4653 18.5398 15.5373 18.0198 15.5373ZM18.0798 11.5773C18.4398 11.5773 18.7558 11.4933 19.0278 11.3253C19.3078 11.1573 19.5238 10.9253 19.6758 10.6293C19.8278 10.3333 19.9038 9.99327 19.9038 9.60927C19.9038 9.21727 19.8238 8.87327 19.6638 8.57727C19.5118 8.27327 19.2998 8.03727 19.0278 7.86927C18.7558 7.70127 18.4398 7.61727 18.0798 7.61727C17.7198 7.61727 17.4038 7.70527 17.1318 7.88127C16.8598 8.04927 16.6438 8.28527 16.4838 8.58927C16.3318 8.88527 16.2558 9.22527 16.2558 9.60927C16.2558 9.98527 16.3318 10.3253 16.4838 10.6293C16.6438 10.9253 16.8598 11.1573 17.1318 11.3253C17.4038 11.4933 17.7198 11.5773 18.0798 11.5773ZM23.0508 12.7773V3.89727H24.5148V7.74927L24.2388 7.89327C24.3188 7.60527 24.4748 7.34527 24.7068 7.11327C24.9388 6.87327 25.2148 6.68127 25.5348 6.53727C25.8548 6.39327 26.1828 6.32127 26.5188 6.32127C26.9988 6.32127 27.3988 6.41727 27.7188 6.60927C28.0468 6.80127 28.2908 7.08927 28.4508 7.47327C28.6188 7.85727 28.7028 8.33727 28.7028 8.91327V12.7773H27.2268V9.02127C27.2268 8.70127 27.1828 8.43727 27.0948 8.22927C27.0068 8.01327 26.8708 7.85727 26.6868 7.76127C26.5028 7.65727 26.2788 7.60927 26.0148 7.61727C25.7988 7.61727 25.5988 7.65327 25.4148 7.72527C25.2388 7.78927 25.0828 7.88527 24.9468 8.01327C24.8188 8.13327 24.7148 8.27327 24.6348 8.43327C24.5628 8.59327 24.5268 8.76927 24.5268 8.96127V12.7773H23.7948C23.6508 12.7773 23.5148 12.7773 23.3868 12.7773C23.2668 12.7773 23.1548 12.7773 23.0508 12.7773ZM35.8466 12.7773L33.2306 4.37727H34.8626L36.3506 9.33327C36.3986 9.48527 36.4426 9.65327 36.4826 9.83727C36.5226 10.0213 36.5586 10.2053 36.5906 10.3893C36.6226 10.5653 36.6506 10.7293 36.6746 10.8813C36.6986 11.0333 36.7226 11.1613 36.7466 11.2653L36.4226 11.2533C36.5186 10.8773 36.5946 10.5733 36.6506 10.3413C36.7066 10.1093 36.7546 9.91727 36.7946 9.76527C36.8426 9.60527 36.8906 9.45727 36.9386 9.32127L38.3546 5.69727H39.6866L41.0666 9.32127C41.1466 9.54527 41.2186 9.76127 41.2826 9.96927C41.3466 10.1693 41.3986 10.3693 41.4386 10.5693C41.4866 10.7613 41.5306 10.9613 41.5706 11.1693L41.2826 11.2293C41.3146 11.0373 41.3386 10.8813 41.3546 10.7613C41.3706 10.6413 41.3866 10.5333 41.4026 10.4373C41.4186 10.3413 41.4346 10.2493 41.4506 10.1613C41.4666 10.0653 41.4906 9.95327 41.5226 9.82527C41.5626 9.68927 41.6106 9.51727 41.6666 9.30927L43.1426 4.37727H44.7626L42.1346 12.7773H41.0066L38.8706 7.66527L39.0146 7.71327L36.9866 12.7773H35.8466ZM47.9153 12.8973C47.3953 12.8973 46.9233 12.7533 46.4993 12.4653C46.0753 12.1773 45.7353 11.7853 45.4793 11.2893C45.2233 10.7933 45.0953 10.2293 45.0953 9.59727C45.0953 8.96527 45.2233 8.40127 45.4793 7.90527C45.7353 7.40927 46.0833 7.02127 46.5233 6.74127C46.9633 6.46127 47.4593 6.32127 48.0113 6.32127C48.3313 6.32127 48.6233 6.36927 48.8873 6.46527C49.1513 6.55327 49.3833 6.68127 49.5833 6.84927C49.7833 7.01727 49.9473 7.20927 50.0753 7.42527C50.2113 7.64127 50.3033 7.87327 50.3513 8.12127L50.0273 8.03727V6.45327H51.5153V12.7773H50.0153V11.2653L50.3633 11.2053C50.3073 11.4213 50.2033 11.6333 50.0513 11.8413C49.9073 12.0413 49.7233 12.2213 49.4993 12.3813C49.2833 12.5333 49.0393 12.6573 48.7673 12.7533C48.5033 12.8493 48.2193 12.8973 47.9153 12.8973ZM48.3233 11.5893C48.6673 11.5893 48.9713 11.5053 49.2353 11.3373C49.4993 11.1693 49.7033 10.9373 49.8473 10.6413C49.9993 10.3373 50.0753 9.98927 50.0753 9.59727C50.0753 9.21327 49.9993 8.87327 49.8473 8.57727C49.7033 8.28127 49.4993 8.04927 49.2353 7.88127C48.9713 7.71327 48.6673 7.62927 48.3233 7.62927C47.9793 7.62927 47.6753 7.71327 47.4113 7.88127C47.1553 8.04927 46.9553 8.28127 46.8113 8.57727C46.6673 8.87327 46.5953 9.21327 46.5953 9.59727C46.5953 9.98927 46.6673 10.3373 46.8113 10.6413C46.9553 10.9373 47.1553 11.1693 47.4113 11.3373C47.6753 11.5053 47.9793 11.5893 48.3233 11.5893ZM55.1139 12.7773L52.4499 6.45327H54.0579L55.8579 11.1813L55.5459 11.2653L57.4419 6.45327H59.0139L56.2179 12.7773H55.1139ZM62.882 12.8973C62.218 12.8973 61.63 12.7573 61.118 12.4773C60.614 12.1973 60.218 11.8173 59.93 11.3373C59.65 10.8493 59.51 10.2933 59.51 9.66927C59.51 9.17327 59.59 8.72127 59.75 8.31327C59.91 7.90527 60.13 7.55327 60.41 7.25727C60.698 6.95327 61.038 6.72127 61.43 6.56127C61.83 6.39327 62.266 6.30927 62.738 6.30927C63.154 6.30927 63.542 6.38927 63.902 6.54927C64.262 6.70927 64.574 6.92927 64.838 7.20927C65.102 7.48127 65.302 7.80927 65.438 8.19327C65.582 8.56927 65.65 8.98127 65.642 9.42927L65.63 9.94527H60.506L60.23 8.93727H64.394L64.202 9.14127V8.87727C64.178 8.62927 64.098 8.41327 63.962 8.22927C63.826 8.03727 63.65 7.88927 63.434 7.78527C63.226 7.67327 62.994 7.61727 62.738 7.61727C62.346 7.61727 62.014 7.69327 61.742 7.84527C61.478 7.99727 61.278 8.21727 61.142 8.50527C61.006 8.78527 60.938 9.13727 60.938 9.56127C60.938 9.96927 61.022 10.3253 61.19 10.6293C61.366 10.9333 61.61 11.1693 61.922 11.3373C62.242 11.4973 62.614 11.5773 63.038 11.5773C63.334 11.5773 63.606 11.5293 63.854 11.4333C64.102 11.3373 64.37 11.1653 64.658 10.9173L65.39 11.9373C65.174 12.1373 64.926 12.3093 64.646 12.4533C64.374 12.5893 64.086 12.6973 63.782 12.7773C63.478 12.8573 63.178 12.8973 62.882 12.8973ZM66.9612 12.7773V3.89727H68.4492V12.7773H66.9612ZM73.0304 12.8973C72.3664 12.8973 71.7784 12.7573 71.2664 12.4773C70.7624 12.1973 70.3664 11.8173 70.0784 11.3373C69.7984 10.8493 69.6584 10.2933 69.6584 9.66927C69.6584 9.17327 69.7384 8.72127 69.8984 8.31327C70.0584 7.90527 70.2784 7.55327 70.5584 7.25727C70.8464 6.95327 71.1864 6.72127 71.5784 6.56127C71.9784 6.39327 72.4144 6.30927 72.8864 6.30927C73.3024 6.30927 73.6904 6.38927 74.0504 6.54927C74.4104 6.70927 74.7224 6.92927 74.9864 7.20927C75.2504 7.48127 75.4504 7.80927 75.5864 8.19327C75.7304 8.56927 75.7984 8.98127 75.7904 9.42927L75.7784 9.94527H70.6544L70.3784 8.93727H74.5424L74.3504 9.14127V8.87727C74.3264 8.62927 74.2464 8.41327 74.1104 8.22927C73.9744 8.03727 73.7984 7.88927 73.5824 7.78527C73.3744 7.67327 73.1424 7.61727 72.8864 7.61727C72.4944 7.61727 72.1624 7.69327 71.8904 7.84527C71.6264 7.99727 71.4264 8.21727 71.2904 8.50527C71.1544 8.78527 71.0864 9.13727 71.0864 9.56127C71.0864 9.96927 71.1704 10.3253 71.3384 10.6293C71.5144 10.9333 71.7584 11.1693 72.0704 11.3373C72.3904 11.4973 72.7624 11.5773 73.1864 11.5773C73.4824 11.5773 73.7544 11.5293 74.0024 11.4333C74.2504 11.3373 74.5184 11.1653 74.8064 10.9173L75.5384 11.9373C75.3224 12.1373 75.0744 12.3093 74.7944 12.4533C74.5224 12.5893 74.2344 12.6973 73.9304 12.7773C73.6264 12.8573 73.3264 12.8973 73.0304 12.8973ZM77.0976 12.7773V6.45327H78.5376L78.5616 7.74927L78.2856 7.89327C78.3656 7.60527 78.5216 7.34527 78.7536 7.11327C78.9856 6.87327 79.2616 6.68127 79.5816 6.53727C79.9016 6.39327 80.2296 6.32127 80.5656 6.32127C81.0456 6.32127 81.4456 6.41727 81.7656 6.60927C82.0936 6.80127 82.3376 7.08927 82.4976 7.47327C82.6656 7.85727 82.7496 8.33727 82.7496 8.91327V12.7773H81.2736V9.02127C81.2736 8.70127 81.2296 8.43727 81.1416 8.22927C81.0536 8.01327 80.9176 7.85727 80.7336 7.76127C80.5496 7.65727 80.3256 7.60927 80.0616 7.61727C79.8456 7.61727 79.6456 7.65327 79.4616 7.72527C79.2856 7.78927 79.1296 7.88527 78.9936 8.01327C78.8656 8.13327 78.7616 8.27327 78.6816 8.43327C78.6096 8.59327 78.5736 8.76927 78.5736 8.96127V12.7773H77.8416C77.6976 12.7773 77.5616 12.7773 77.4336 12.7773C77.3136 12.7773 77.2016 12.7773 77.0976 12.7773ZM87.2541 15.5373C86.7821 15.5373 86.3101 15.4653 85.8381 15.3213C85.3741 15.1773 84.9981 14.9893 84.7101 14.7573L85.2381 13.6653C85.4061 13.7853 85.5941 13.8893 85.8021 13.9773C86.0101 14.0653 86.2301 14.1333 86.4621 14.1813C86.7021 14.2293 86.9381 14.2533 87.1701 14.2533C87.5941 14.2533 87.9461 14.1853 88.2261 14.0493C88.5141 13.9213 88.7301 13.7213 88.8741 13.4493C89.0181 13.1853 89.0901 12.8533 89.0901 12.4533V11.2893L89.3061 11.3733C89.2581 11.6213 89.1261 11.8573 88.9101 12.0813C88.6941 12.3053 88.4221 12.4893 88.0941 12.6333C87.7661 12.7693 87.4301 12.8373 87.0861 12.8373C86.4861 12.8373 85.9541 12.6973 85.4901 12.4173C85.0341 12.1373 84.6701 11.7573 84.3981 11.2773C84.1341 10.7893 84.0021 10.2293 84.0021 9.59727C84.0021 8.96527 84.1341 8.40527 84.3981 7.91727C84.6621 7.42127 85.0221 7.03327 85.4781 6.75327C85.9421 6.46527 86.4621 6.32127 87.0381 6.32127C87.2781 6.32127 87.5101 6.34927 87.7341 6.40527C87.9581 6.46127 88.1621 6.54127 88.3461 6.64527C88.5381 6.74927 88.7101 6.86527 88.8621 6.99327C89.0141 7.12127 89.1381 7.25727 89.2341 7.40127C89.3301 7.54527 89.3901 7.68527 89.4141 7.82127L89.1021 7.91727L89.1261 6.45327H90.5781V12.3453C90.5781 12.8573 90.5021 13.3093 90.3501 13.7013C90.1981 14.0933 89.9781 14.4253 89.6901 14.6973C89.4021 14.9773 89.0541 15.1853 88.6461 15.3213C88.2381 15.4653 87.7741 15.5373 87.2541 15.5373ZM87.3141 11.5773C87.6741 11.5773 87.9901 11.4933 88.2621 11.3253C88.5421 11.1573 88.7581 10.9253 88.9101 10.6293C89.0621 10.3333 89.1381 9.99327 89.1381 9.60927C89.1381 9.21727 89.0581 8.87327 88.8981 8.57727C88.7461 8.27327 88.5341 8.03727 88.2621 7.86927C87.9901 7.70127 87.6741 7.61727 87.3141 7.61727C86.9541 7.61727 86.6381 7.70527 86.3661 7.88127C86.0941 8.04927 85.8781 8.28527 85.7181 8.58927C85.5661 8.88527 85.4901 9.22527 85.4901 9.60927C85.4901 9.98527 85.5661 10.3253 85.7181 10.6293C85.8781 10.9253 86.0941 11.1573 86.3661 11.3253C86.6381 11.4933 86.9541 11.5773 87.3141 11.5773ZM92.9691 12.7773V4.84527H94.4451V12.7773H92.9691ZM91.7211 7.82127V6.45327H95.8251V7.82127H91.7211ZM96.9492 12.7773V3.89727H98.4132V7.74927L98.1372 7.89327C98.2172 7.60527 98.3732 7.34527 98.6052 7.11327C98.8372 6.87327 99.1132 6.68127 99.4332 6.53727C99.7532 6.39327 100.081 6.32127 100.417 6.32127C100.897 6.32127 101.297 6.41727 101.617 6.60927C101.945 6.80127 102.189 7.08927 102.349 7.47327C102.517 7.85727 102.601 8.33727 102.601 8.91327V12.7773H101.125V9.02127C101.125 8.70127 101.081 8.43727 100.993 8.22927C100.905 8.01327 100.769 7.85727 100.585 7.76127C100.401 7.65727 100.177 7.60927 99.9132 7.61727C99.6972 7.61727 99.4972 7.65327 99.3132 7.72527C99.1372 7.78927 98.9812 7.88527 98.8452 8.01327C98.7172 8.13327 98.6132 8.27327 98.5332 8.43327C98.4612 8.59327 98.4252 8.76927 98.4252 8.96127V12.7773H97.6932C97.5492 12.7773 97.4132 12.7773 97.2852 12.7773C97.1652 12.7773 97.0532 12.7773 96.9492 12.7773Z" fill="#0099FF"/>
<path d="M154.181 12.0406V3.64057H155.741V10.6006H159.617V12.0406H154.181ZM163.793 12.1606C163.161 12.1606 162.597 12.0206 162.101 11.7406C161.605 11.4526 161.213 11.0606 160.925 10.5646C160.637 10.0686 160.493 9.50457 160.493 8.87257C160.493 8.24057 160.637 7.67657 160.925 7.18057C161.213 6.68457 161.605 6.29657 162.101 6.01657C162.597 5.72857 163.161 5.58457 163.793 5.58457C164.417 5.58457 164.977 5.72857 165.473 6.01657C165.969 6.29657 166.357 6.68457 166.637 7.18057C166.925 7.67657 167.069 8.24057 167.069 8.87257C167.069 9.50457 166.925 10.0686 166.637 10.5646C166.357 11.0606 165.969 11.4526 165.473 11.7406C164.977 12.0206 164.417 12.1606 163.793 12.1606ZM163.793 10.8526C164.137 10.8526 164.441 10.7646 164.705 10.5886C164.977 10.4126 165.189 10.1766 165.341 9.88057C165.501 9.58457 165.577 9.24857 165.569 8.87257C165.577 8.48857 165.501 8.14857 165.341 7.85257C165.189 7.55657 164.977 7.32457 164.705 7.15657C164.441 6.98057 164.137 6.89257 163.793 6.89257C163.449 6.89257 163.137 6.98057 162.857 7.15657C162.585 7.32457 162.373 7.56057 162.221 7.86457C162.069 8.16057 161.993 8.49657 161.993 8.87257C161.993 9.24857 162.069 9.58457 162.221 9.88057C162.373 10.1766 162.585 10.4126 162.857 10.5886C163.137 10.7646 163.449 10.8526 163.793 10.8526ZM169.643 12.0406L167.519 5.71657L169.031 5.70457L170.447 10.2166L170.183 10.1926L171.719 6.66457H172.607L174.179 10.1926L173.867 10.2286L175.295 5.71657H176.807L174.671 12.0406H173.615L171.995 8.24857L172.223 8.27257L170.687 12.0406H169.643ZM181.685 12.0406V3.64057H183.245V12.0406H181.685ZM182.405 8.59657V7.18057H186.737V8.59657H182.405ZM182.405 5.08057V3.64057H187.253V5.08057H182.405ZM188.616 12.0406V5.71657H190.068L190.092 7.73257L189.888 7.27657C189.976 6.95657 190.128 6.66857 190.344 6.41257C190.56 6.15657 190.808 5.95657 191.088 5.81257C191.376 5.66057 191.676 5.58457 191.988 5.58457C192.124 5.58457 192.252 5.59657 192.372 5.62057C192.5 5.64457 192.604 5.67257 192.684 5.70457L192.288 7.32457C192.2 7.27657 192.092 7.23657 191.964 7.20457C191.836 7.17257 191.708 7.15657 191.58 7.15657C191.38 7.15657 191.188 7.19657 191.004 7.27657C190.828 7.34857 190.672 7.45257 190.536 7.58857C190.4 7.72457 190.292 7.88457 190.212 8.06857C190.14 8.24457 190.104 8.44457 190.104 8.66857V12.0406H188.616ZM196.361 12.1606C195.697 12.1606 195.109 12.0206 194.597 11.7406C194.093 11.4606 193.697 11.0806 193.409 10.6006C193.129 10.1126 192.989 9.55657 192.989 8.93257C192.989 8.43657 193.069 7.98457 193.229 7.57657C193.389 7.16857 193.609 6.81657 193.889 6.52057C194.177 6.21657 194.517 5.98457 194.909 5.82457C195.309 5.65657 195.745 5.57257 196.217 5.57257C196.633 5.57257 197.021 5.65257 197.381 5.81257C197.741 5.97257 198.053 6.19257 198.317 6.47257C198.581 6.74457 198.781 7.07257 198.917 7.45657C199.061 7.83257 199.129 8.24457 199.121 8.69257L199.109 9.20857H193.985L193.709 8.20057H197.873L197.681 8.40457V8.14057C197.657 7.89257 197.577 7.67657 197.441 7.49257C197.305 7.30057 197.129 7.15257 196.913 7.04857C196.705 6.93657 196.473 6.88057 196.217 6.88057C195.825 6.88057 195.493 6.95657 195.221 7.10857C194.957 7.26057 194.757 7.48057 194.621 7.76857C194.485 8.04857 194.417 8.40057 194.417 8.82457C194.417 9.23257 194.501 9.58857 194.669 9.89257C194.845 10.1966 195.089 10.4326 195.401 10.6006C195.721 10.7606 196.093 10.8406 196.517 10.8406C196.813 10.8406 197.085 10.7926 197.333 10.6966C197.581 10.6006 197.849 10.4286 198.137 10.1806L198.869 11.2006C198.653 11.4006 198.405 11.5726 198.125 11.7166C197.853 11.8526 197.565 11.9606 197.261 12.0406C196.957 12.1206 196.657 12.1606 196.361 12.1606ZM204.905 14.6806V10.5286L205.205 10.5646C205.197 10.7566 205.125 10.9486 204.989 11.1406C204.861 11.3246 204.689 11.4966 204.473 11.6566C204.265 11.8086 204.029 11.9326 203.765 12.0286C203.509 12.1166 203.241 12.1606 202.961 12.1606C202.401 12.1606 201.897 12.0206 201.449 11.7406C201.009 11.4526 200.661 11.0606 200.405 10.5646C200.149 10.0686 200.021 9.50457 200.021 8.87257C200.021 8.23257 200.145 7.66857 200.393 7.18057C200.649 6.68457 200.993 6.29657 201.425 6.01657C201.865 5.72857 202.365 5.58457 202.925 5.58457C203.229 5.58457 203.521 5.63257 203.801 5.72857C204.081 5.82457 204.333 5.95257 204.557 6.11257C204.781 6.27257 204.957 6.45257 205.085 6.65257C205.221 6.85257 205.293 7.05657 205.301 7.26457L204.917 7.30057L204.941 5.70457H206.381V14.6806H204.905ZM203.201 10.8526C203.545 10.8526 203.849 10.7686 204.113 10.6006C204.377 10.4326 204.581 10.2006 204.725 9.90457C204.877 9.60857 204.953 9.26457 204.953 8.87257C204.953 8.48057 204.877 8.13657 204.725 7.84057C204.581 7.53657 204.377 7.30057 204.113 7.13257C203.849 6.96457 203.545 6.88057 203.201 6.88057C202.857 6.88057 202.553 6.96857 202.289 7.14457C202.025 7.31257 201.817 7.54857 201.665 7.85257C201.521 8.14857 201.449 8.48857 201.449 8.87257C201.449 9.25657 201.521 9.60057 201.665 9.90457C201.817 10.2006 202.025 10.4326 202.289 10.6006C202.553 10.7686 202.857 10.8526 203.201 10.8526ZM210.3 12.1606C209.844 12.1606 209.448 12.0606 209.112 11.8606C208.776 11.6526 208.52 11.3606 208.344 10.9846C208.168 10.6006 208.08 10.1446 208.08 9.61657V5.71657H209.556V9.30457C209.556 9.64057 209.608 9.92857 209.712 10.1686C209.816 10.4006 209.968 10.5806 210.168 10.7086C210.368 10.8366 210.608 10.9006 210.888 10.9006C211.096 10.9006 211.284 10.8686 211.452 10.8046C211.628 10.7326 211.78 10.6366 211.908 10.5166C212.036 10.3886 212.136 10.2406 212.208 10.0726C212.28 9.89657 212.316 9.70857 212.316 9.50857V5.71657H213.792V12.0406H212.352L212.328 10.7206L212.592 10.5766C212.496 10.8806 212.332 11.1526 212.1 11.3926C211.876 11.6246 211.608 11.8126 211.296 11.9566C210.984 12.0926 210.652 12.1606 210.3 12.1606ZM218.486 12.1606C217.822 12.1606 217.234 12.0206 216.722 11.7406C216.218 11.4606 215.822 11.0806 215.534 10.6006C215.254 10.1126 215.114 9.55657 215.114 8.93257C215.114 8.43657 215.194 7.98457 215.354 7.57657C215.514 7.16857 215.734 6.81657 216.014 6.52057C216.302 6.21657 216.642 5.98457 217.034 5.82457C217.434 5.65657 217.87 5.57257 218.342 5.57257C218.758 5.57257 219.146 5.65257 219.506 5.81257C219.866 5.97257 220.178 6.19257 220.442 6.47257C220.706 6.74457 220.906 7.07257 221.042 7.45657C221.186 7.83257 221.254 8.24457 221.246 8.69257L221.234 9.20857H216.11L215.834 8.20057H219.998L219.806 8.40457V8.14057C219.782 7.89257 219.702 7.67657 219.566 7.49257C219.43 7.30057 219.254 7.15257 219.038 7.04857C218.83 6.93657 218.598 6.88057 218.342 6.88057C217.95 6.88057 217.618 6.95657 217.346 7.10857C217.082 7.26057 216.882 7.48057 216.746 7.76857C216.61 8.04857 216.542 8.40057 216.542 8.82457C216.542 9.23257 216.626 9.58857 216.794 9.89257C216.97 10.1966 217.214 10.4326 217.526 10.6006C217.846 10.7606 218.218 10.8406 218.642 10.8406C218.938 10.8406 219.21 10.7926 219.458 10.6966C219.706 10.6006 219.974 10.4286 220.262 10.1806L220.994 11.2006C220.778 11.4006 220.53 11.5726 220.25 11.7166C219.978 11.8526 219.69 11.9606 219.386 12.0406C219.082 12.1206 218.782 12.1606 218.486 12.1606ZM222.554 12.0406V5.71657H223.994L224.018 7.01257L223.742 7.15657C223.822 6.86857 223.978 6.60857 224.21 6.37657C224.442 6.13657 224.718 5.94457 225.038 5.80057C225.358 5.65657 225.686 5.58457 226.022 5.58457C226.502 5.58457 226.902 5.68057 227.222 5.87257C227.55 6.06457 227.794 6.35257 227.954 6.73657C228.122 7.12057 228.206 7.60057 228.206 8.17657V12.0406H226.73V8.28457C226.73 7.96457 226.686 7.70057 226.598 7.49257C226.51 7.27657 226.374 7.12057 226.19 7.02457C226.006 6.92057 225.782 6.87257 225.518 6.88057C225.302 6.88057 225.102 6.91657 224.918 6.98857C224.742 7.05257 224.586 7.14857 224.45 7.27657C224.322 7.39657 224.218 7.53657 224.138 7.69657C224.066 7.85657 224.03 8.03257 224.03 8.22457V12.0406H223.298C223.154 12.0406 223.018 12.0406 222.89 12.0406C222.77 12.0406 222.658 12.0406 222.554 12.0406ZM232.578 12.1606C231.986 12.1606 231.454 12.0166 230.982 11.7286C230.51 11.4406 230.138 11.0486 229.866 10.5526C229.594 10.0566 229.458 9.49657 229.458 8.87257C229.458 8.24857 229.594 7.68857 229.866 7.19257C230.138 6.69657 230.51 6.30457 230.982 6.01657C231.454 5.72857 231.986 5.58457 232.578 5.58457C233.146 5.58457 233.662 5.69257 234.126 5.90857C234.59 6.12457 234.95 6.42457 235.206 6.80857L234.39 7.79257C234.27 7.62457 234.118 7.47257 233.934 7.33657C233.75 7.20057 233.554 7.09257 233.346 7.01257C233.138 6.93257 232.93 6.89257 232.722 6.89257C232.37 6.89257 232.054 6.98057 231.774 7.15657C231.502 7.32457 231.286 7.56057 231.126 7.86457C230.966 8.16057 230.886 8.49657 230.886 8.87257C230.886 9.24857 230.966 9.58457 231.126 9.88057C231.294 10.1766 231.518 10.4126 231.798 10.5886C232.078 10.7646 232.39 10.8526 232.734 10.8526C232.942 10.8526 233.142 10.8206 233.334 10.7566C233.534 10.6846 233.722 10.5846 233.898 10.4566C234.074 10.3286 234.238 10.1686 234.39 9.97657L235.206 10.9726C234.934 11.3246 234.558 11.6126 234.078 11.8366C233.606 12.0526 233.106 12.1606 232.578 12.1606ZM237.119 14.8006L238.463 11.6926L238.475 12.6766L235.355 5.71657H237.059L238.799 9.84457C238.855 9.94857 238.911 10.0886 238.967 10.2646C239.023 10.4326 239.071 10.6006 239.111 10.7686L238.811 10.8646C238.867 10.7126 238.927 10.5526 238.991 10.3846C239.055 10.2086 239.115 10.0286 239.171 9.84457L240.659 5.71657H242.375L239.735 12.0406L238.655 14.8006H237.119Z" fill="#0099FF"/>
<path d="M123.515 13.6606L128.483 3.64057H129.923L124.979 13.6606H123.515Z" fill="#0099FF"/>
<path d="M2.14963 70.4612C4.81663 67.5504 7.48263 64.6397 10.1496 61.7925C12.8166 58.9454 15.4826 56.1618 18.1496 53.5027C20.8166 50.8436 23.4829 48.3089 26.1496 45.954C28.8163 43.5992 31.4829 41.4241 34.1496 39.4765C36.8163 37.5288 39.4829 35.8085 42.1496 34.3531C44.8163 32.8977 47.4829 31.7073 50.1496 30.8078C52.8163 29.9083 55.4829 29.2998 58.1496 28.9955C60.8163 28.6913 63.4829 28.6913 66.1496 28.9955C68.8163 29.2998 71.4829 29.9083 74.1496 30.8078C76.8163 31.7073 79.4829 32.8977 82.1496 34.3531C84.8163 35.8085 87.4829 37.5288 90.1496 39.4765C92.8163 41.4242 95.4829 43.5992 98.1496 45.954C100.816 48.3089 103.483 50.8436 106.15 53.5027C108.816 56.1618 111.483 58.9454 114.15 61.7925C116.816 64.6397 119.483 67.5504 122.15 70.4612C124.816 73.372 127.483 76.2827 130.15 79.1299C132.816 81.977 135.483 84.7606 138.15 87.4197C140.816 90.0788 143.483 92.6135 146.15 94.9684C148.816 97.3232 151.483 99.4983 154.15 101.446C156.816 103.394 159.483 105.114 162.15 106.569C164.816 108.025 167.483 109.215 170.15 110.115C172.816 111.014 175.483 111.623 178.15 111.927C180.816 112.231 183.483 112.231 186.15 111.927C188.816 111.623 191.483 111.014 194.15 110.115C196.816 109.215 199.483 108.025 202.15 106.569C204.816 105.114 207.483 103.394 210.15 101.446C212.816 99.4983 215.483 97.3232 218.15 94.9684C220.816 92.6135 223.483 90.0788 226.15 87.4197C228.817 84.7606 231.483 81.977 234.15 79.1299C236.817 76.2827 239.483 73.372 242.15 70.4612" stroke="#191919" stroke-width="4" stroke-miterlimit="10" stroke-linecap="round"/>
</svg>
