<svg width="245" height="115" viewBox="0 0 245 115" fill="none" xmlns="http://www.w3.org/2000/svg">
<path d="M2.628 12.7773V4.37727H4.188V11.3373H8.064V12.7773H2.628ZM12.2404 12.8973C11.6084 12.8973 11.0444 12.7573 10.5484 12.4773C10.0524 12.1893 9.66038 11.7973 9.37238 11.3013C9.08438 10.8053 8.94038 10.2413 8.94038 9.60927C8.94038 8.97727 9.08438 8.41327 9.37238 7.91727C9.66038 7.42127 10.0524 7.03327 10.5484 6.75327C11.0444 6.46527 11.6084 6.32127 12.2404 6.32127C12.8644 6.32127 13.4244 6.46527 13.9204 6.75327C14.4164 7.03327 14.8044 7.42127 15.0844 7.91727C15.3724 8.41327 15.5164 8.97727 15.5164 9.60927C15.5164 10.2413 15.3724 10.8053 15.0844 11.3013C14.8044 11.7973 14.4164 12.1893 13.9204 12.4773C13.4244 12.7573 12.8644 12.8973 12.2404 12.8973ZM12.2404 11.5893C12.5844 11.5893 12.8884 11.5013 13.1524 11.3253C13.4244 11.1493 13.6364 10.9133 13.7884 10.6173C13.9484 10.3213 14.0244 9.98527 14.0164 9.60927C14.0244 9.22527 13.9484 8.88527 13.7884 8.58927C13.6364 8.29327 13.4244 8.06127 13.1524 7.89327C12.8884 7.71727 12.5844 7.62927 12.2404 7.62927C11.8964 7.62927 11.5844 7.71727 11.3044 7.89327C11.0324 8.06127 10.8204 8.29727 10.6684 8.60127C10.5164 8.89727 10.4404 9.23327 10.4404 9.60927C10.4404 9.98527 10.5164 10.3213 10.6684 10.6173C10.8204 10.9133 11.0324 11.1493 11.3044 11.3253C11.5844 11.5013 11.8964 11.5893 12.2404 11.5893ZM18.0903 12.7773L15.9663 6.45327L17.4783 6.44127L18.8943 10.9533L18.6303 10.9293L20.1663 7.40127H21.0543L22.6263 10.9293L22.3143 10.9653L23.7423 6.45327H25.2543L23.1183 12.7773H22.0623L20.4423 8.98527L20.6703 9.00927L19.1343 12.7773H18.0903ZM31.8239 12.7773L29.2079 4.37727H30.8399L32.3279 9.33327C32.3759 9.48527 32.4199 9.65327 32.4599 9.83727C32.4999 10.0213 32.5359 10.2053 32.5679 10.3893C32.5999 10.5653 32.6279 10.7293 32.6519 10.8813C32.6759 11.0333 32.6999 11.1613 32.7239 11.2653L32.3999 11.2533C32.4959 10.8773 32.5719 10.5733 32.6279 10.3413C32.6839 10.1093 32.7319 9.91727 32.7719 9.76527C32.8199 9.60527 32.8679 9.45727 32.9159 9.32127L34.3319 5.69727H35.6639L37.0439 9.32127C37.1239 9.54527 37.1959 9.76127 37.2599 9.96927C37.3239 10.1693 37.3759 10.3693 37.4159 10.5693C37.4639 10.7613 37.5079 10.9613 37.5479 11.1693L37.2599 11.2293C37.2919 11.0373 37.3159 10.8813 37.3319 10.7613C37.3479 10.6413 37.3639 10.5333 37.3799 10.4373C37.3959 10.3413 37.4119 10.2493 37.4279 10.1613C37.4439 10.0653 37.4679 9.95327 37.4999 9.82527C37.5399 9.68927 37.5879 9.51727 37.6439 9.30927L39.1199 4.37727H40.7399L38.1119 12.7773H36.9839L34.8479 7.66527L34.9919 7.71327L32.9639 12.7773H31.8239ZM43.8926 12.8973C43.3726 12.8973 42.9006 12.7533 42.4766 12.4653C42.0526 12.1773 41.7126 11.7853 41.4566 11.2893C41.2006 10.7933 41.0726 10.2293 41.0726 9.59727C41.0726 8.96527 41.2006 8.40127 41.4566 7.90527C41.7126 7.40927 42.0606 7.02127 42.5006 6.74127C42.9406 6.46127 43.4366 6.32127 43.9886 6.32127C44.3086 6.32127 44.6006 6.36927 44.8646 6.46527C45.1286 6.55327 45.3606 6.68127 45.5606 6.84927C45.7606 7.01727 45.9246 7.20927 46.0526 7.42527C46.1886 7.64127 46.2806 7.87327 46.3286 8.12127L46.0046 8.03727V6.45327H47.4926V12.7773H45.9926V11.2653L46.3406 11.2053C46.2846 11.4213 46.1806 11.6333 46.0286 11.8413C45.8846 12.0413 45.7006 12.2213 45.4766 12.3813C45.2606 12.5333 45.0166 12.6573 44.7446 12.7533C44.4806 12.8493 44.1966 12.8973 43.8926 12.8973ZM44.3006 11.5893C44.6446 11.5893 44.9486 11.5053 45.2126 11.3373C45.4766 11.1693 45.6806 10.9373 45.8246 10.6413C45.9766 10.3373 46.0526 9.98927 46.0526 9.59727C46.0526 9.21327 45.9766 8.87327 45.8246 8.57727C45.6806 8.28127 45.4766 8.04927 45.2126 7.88127C44.9486 7.71327 44.6446 7.62927 44.3006 7.62927C43.9566 7.62927 43.6526 7.71327 43.3886 7.88127C43.1326 8.04927 42.9326 8.28127 42.7886 8.57727C42.6446 8.87327 42.5726 9.21327 42.5726 9.59727C42.5726 9.98927 42.6446 10.3373 42.7886 10.6413C42.9326 10.9373 43.1326 11.1693 43.3886 11.3373C43.6526 11.5053 43.9566 11.5893 44.3006 11.5893ZM51.0912 12.7773L48.4272 6.45327H50.0352L51.8352 11.1813L51.5232 11.2653L53.4192 6.45327H54.9912L52.1952 12.7773H51.0912ZM58.8593 12.8973C58.1953 12.8973 57.6073 12.7573 57.0953 12.4773C56.5913 12.1973 56.1953 11.8173 55.9073 11.3373C55.6273 10.8493 55.4873 10.2933 55.4873 9.66927C55.4873 9.17327 55.5673 8.72127 55.7273 8.31327C55.8873 7.90527 56.1073 7.55327 56.3873 7.25727C56.6753 6.95327 57.0153 6.72127 57.4073 6.56127C57.8073 6.39327 58.2433 6.30927 58.7153 6.30927C59.1313 6.30927 59.5193 6.38927 59.8793 6.54927C60.2393 6.70927 60.5513 6.92927 60.8153 7.20927C61.0793 7.48127 61.2793 7.80927 61.4153 8.19327C61.5593 8.56927 61.6273 8.98127 61.6193 9.42927L61.6073 9.94527H56.4833L56.2073 8.93727H60.3713L60.1793 9.14127V8.87727C60.1553 8.62927 60.0753 8.41327 59.9393 8.22927C59.8033 8.03727 59.6273 7.88927 59.4113 7.78527C59.2033 7.67327 58.9713 7.61727 58.7153 7.61727C58.3233 7.61727 57.9913 7.69327 57.7193 7.84527C57.4553 7.99727 57.2553 8.21727 57.1193 8.50527C56.9833 8.78527 56.9153 9.13727 56.9153 9.56127C56.9153 9.96927 56.9993 10.3253 57.1673 10.6293C57.3433 10.9333 57.5873 11.1693 57.8993 11.3373C58.2193 11.4973 58.5913 11.5773 59.0153 11.5773C59.3113 11.5773 59.5833 11.5293 59.8313 11.4333C60.0793 11.3373 60.3473 11.1653 60.6353 10.9173L61.3672 11.9373C61.1513 12.1373 60.9033 12.3093 60.6233 12.4533C60.3513 12.5893 60.0633 12.6973 59.7593 12.7773C59.4553 12.8573 59.1553 12.8973 58.8593 12.8973ZM62.9385 12.7773V3.89727H64.4265V12.7773H62.9385ZM69.0077 12.8973C68.3437 12.8973 67.7557 12.7573 67.2437 12.4773C66.7397 12.1973 66.3437 11.8173 66.0557 11.3373C65.7757 10.8493 65.6357 10.2933 65.6357 9.66927C65.6357 9.17327 65.7157 8.72127 65.8757 8.31327C66.0357 7.90527 66.2557 7.55327 66.5357 7.25727C66.8237 6.95327 67.1637 6.72127 67.5557 6.56127C67.9557 6.39327 68.3917 6.30927 68.8637 6.30927C69.2797 6.30927 69.6677 6.38927 70.0277 6.54927C70.3877 6.70927 70.6997 6.92927 70.9637 7.20927C71.2277 7.48127 71.4277 7.80927 71.5637 8.19327C71.7077 8.56927 71.7757 8.98127 71.7677 9.42927L71.7557 9.94527H66.6317L66.3557 8.93727H70.5197L70.3277 9.14127V8.87727C70.3037 8.62927 70.2237 8.41327 70.0877 8.22927C69.9517 8.03727 69.7757 7.88927 69.5597 7.78527C69.3517 7.67327 69.1197 7.61727 68.8637 7.61727C68.4717 7.61727 68.1397 7.69327 67.8677 7.84527C67.6037 7.99727 67.4037 8.21727 67.2677 8.50527C67.1317 8.78527 67.0637 9.13727 67.0637 9.56127C67.0637 9.96927 67.1477 10.3253 67.3157 10.6293C67.4917 10.9333 67.7357 11.1693 68.0477 11.3373C68.3677 11.4973 68.7397 11.5773 69.1637 11.5773C69.4597 11.5773 69.7317 11.5293 69.9797 11.4333C70.2277 11.3373 70.4957 11.1653 70.7837 10.9173L71.5157 11.9373C71.2997 12.1373 71.0517 12.3093 70.7717 12.4533C70.4997 12.5893 70.2117 12.6973 69.9077 12.7773C69.6037 12.8573 69.3037 12.8973 69.0077 12.8973ZM73.0749 12.7773V6.45327H74.5149L74.5389 7.74927L74.2629 7.89327C74.3429 7.60527 74.4989 7.34527 74.7309 7.11327C74.9629 6.87327 75.2389 6.68127 75.5589 6.53727C75.8789 6.39327 76.2069 6.32127 76.5429 6.32127C77.0229 6.32127 77.4229 6.41727 77.7429 6.60927C78.0709 6.80127 78.3149 7.08927 78.4749 7.47327C78.6429 7.85727 78.7269 8.33727 78.7269 8.91327V12.7773H77.2509V9.02127C77.2509 8.70127 77.2069 8.43727 77.1189 8.22927C77.0309 8.01327 76.8949 7.85727 76.7109 7.76127C76.5269 7.65727 76.3029 7.60927 76.0389 7.61727C75.8229 7.61727 75.6229 7.65327 75.4389 7.72527C75.2629 7.78927 75.1069 7.88527 74.9709 8.01327C74.8429 8.13327 74.7389 8.27327 74.6589 8.43327C74.5869 8.59327 74.5509 8.76927 74.5509 8.96127V12.7773H73.8189C73.6749 12.7773 73.5389 12.7773 73.4109 12.7773C73.2909 12.7773 73.1789 12.7773 73.0749 12.7773ZM83.2314 15.5373C82.7594 15.5373 82.2874 15.4653 81.8154 15.3213C81.3514 15.1773 80.9754 14.9893 80.6874 14.7573L81.2154 13.6653C81.3834 13.7853 81.5714 13.8893 81.7794 13.9773C81.9874 14.0653 82.2074 14.1333 82.4394 14.1813C82.6794 14.2293 82.9154 14.2533 83.1474 14.2533C83.5714 14.2533 83.9234 14.1853 84.2034 14.0493C84.4914 13.9213 84.7074 13.7213 84.8514 13.4493C84.9954 13.1853 85.0674 12.8533 85.0674 12.4533V11.2893L85.2834 11.3733C85.2354 11.6213 85.1034 11.8573 84.8874 12.0813C84.6714 12.3053 84.3994 12.4893 84.0714 12.6333C83.7434 12.7693 83.4074 12.8373 83.0634 12.8373C82.4634 12.8373 81.9314 12.6973 81.4674 12.4173C81.0114 12.1373 80.6474 11.7573 80.3754 11.2773C80.1114 10.7893 79.9794 10.2293 79.9794 9.59727C79.9794 8.96527 80.1114 8.40527 80.3754 7.91727C80.6394 7.42127 80.9994 7.03327 81.4554 6.75327C81.9194 6.46527 82.4394 6.32127 83.0154 6.32127C83.2554 6.32127 83.4874 6.34927 83.7114 6.40527C83.9354 6.46127 84.1394 6.54127 84.3234 6.64527C84.5154 6.74927 84.6874 6.86527 84.8394 6.99327C84.9914 7.12127 85.1154 7.25727 85.2114 7.40127C85.3074 7.54527 85.3674 7.68527 85.3914 7.82127L85.0794 7.91727L85.1034 6.45327H86.5554V12.3453C86.5554 12.8573 86.4794 13.3093 86.3274 13.7013C86.1754 14.0933 85.9554 14.4253 85.6674 14.6973C85.3794 14.9773 85.0314 15.1853 84.6234 15.3213C84.2154 15.4653 83.7514 15.5373 83.2314 15.5373ZM83.2914 11.5773C83.6514 11.5773 83.9674 11.4933 84.2394 11.3253C84.5194 11.1573 84.7354 10.9253 84.8874 10.6293C85.0394 10.3333 85.1154 9.99327 85.1154 9.60927C85.1154 9.21727 85.0354 8.87327 84.8754 8.57727C84.7234 8.27327 84.5114 8.03727 84.2394 7.86927C83.9674 7.70127 83.6514 7.61727 83.2914 7.61727C82.9314 7.61727 82.6154 7.70527 82.3434 7.88127C82.0714 8.04927 81.8554 8.28527 81.6954 8.58927C81.5434 8.88527 81.4674 9.22527 81.4674 9.60927C81.4674 9.98527 81.5434 10.3253 81.6954 10.6293C81.8554 10.9253 82.0714 11.1573 82.3434 11.3253C82.6154 11.4933 82.9314 11.5773 83.2914 11.5773ZM88.9464 12.7773V4.84527H90.4224V12.7773H88.9464ZM87.6984 7.82127V6.45327H91.8024V7.82127H87.6984ZM92.9265 12.7773V3.89727H94.3905V7.74927L94.1145 7.89327C94.1945 7.60527 94.3505 7.34527 94.5825 7.11327C94.8145 6.87327 95.0905 6.68127 95.4105 6.53727C95.7305 6.39327 96.0585 6.32127 96.3945 6.32127C96.8745 6.32127 97.2745 6.41727 97.5945 6.60927C97.9225 6.80127 98.1665 7.08927 98.3265 7.47327C98.4945 7.85727 98.5785 8.33727 98.5785 8.91327V12.7773H97.1025V9.02127C97.1025 8.70127 97.0585 8.43727 96.9705 8.22927C96.8825 8.01327 96.7465 7.85727 96.5625 7.76127C96.3785 7.65727 96.1545 7.60927 95.8905 7.61727C95.6745 7.61727 95.4745 7.65327 95.2905 7.72527C95.1145 7.78927 94.9585 7.88527 94.8225 8.01327C94.6945 8.13327 94.5905 8.27327 94.5105 8.43327C94.4385 8.59327 94.4025 8.76927 94.4025 8.96127V12.7773H93.6705C93.5265 12.7773 93.3905 12.7773 93.2625 12.7773C93.1425 12.7773 93.0305 12.7773 92.9265 12.7773Z" fill="#0099FF"/>
<path d="M155.546 12.0406V3.64057H157.106V12.0406H155.546ZM150.158 12.0406V3.64057H151.718V12.0406H150.158ZM150.806 8.58457V7.12057H156.302V8.58457H150.806ZM159.273 12.0406V5.71657H160.749V12.0406H159.273ZM159.993 4.37257C159.697 4.37257 159.465 4.30057 159.297 4.15657C159.137 4.00457 159.057 3.79257 159.057 3.52057C159.057 3.26457 159.141 3.05657 159.309 2.89657C159.477 2.73657 159.705 2.65657 159.993 2.65657C160.297 2.65657 160.529 2.73257 160.689 2.88457C160.857 3.02857 160.941 3.24057 160.941 3.52057C160.941 3.76857 160.857 3.97257 160.689 4.13257C160.521 4.29257 160.289 4.37257 159.993 4.37257ZM165.465 14.8006C164.993 14.8006 164.521 14.7286 164.049 14.5846C163.585 14.4406 163.209 14.2526 162.921 14.0206L163.449 12.9286C163.617 13.0486 163.805 13.1526 164.013 13.2406C164.221 13.3286 164.441 13.3966 164.673 13.4446C164.913 13.4926 165.149 13.5166 165.381 13.5166C165.805 13.5166 166.157 13.4486 166.437 13.3126C166.725 13.1846 166.941 12.9846 167.085 12.7126C167.229 12.4486 167.301 12.1166 167.301 11.7166V10.5526L167.517 10.6366C167.469 10.8846 167.337 11.1206 167.121 11.3446C166.905 11.5686 166.633 11.7526 166.305 11.8966C165.977 12.0326 165.641 12.1006 165.297 12.1006C164.697 12.1006 164.165 11.9606 163.701 11.6806C163.245 11.4006 162.881 11.0206 162.609 10.5406C162.345 10.0526 162.213 9.49257 162.213 8.86057C162.213 8.22857 162.345 7.66857 162.609 7.18057C162.873 6.68457 163.233 6.29657 163.689 6.01657C164.153 5.72857 164.673 5.58457 165.249 5.58457C165.489 5.58457 165.721 5.61257 165.945 5.66857C166.169 5.72457 166.373 5.80457 166.557 5.90857C166.749 6.01257 166.921 6.12857 167.073 6.25657C167.225 6.38457 167.349 6.52057 167.445 6.66457C167.541 6.80857 167.601 6.94857 167.625 7.08457L167.313 7.18057L167.337 5.71657H168.789V11.6086C168.789 12.1206 168.713 12.5726 168.561 12.9646C168.409 13.3566 168.189 13.6886 167.901 13.9606C167.613 14.2406 167.265 14.4486 166.857 14.5846C166.449 14.7286 165.985 14.8006 165.465 14.8006ZM165.525 10.8406C165.885 10.8406 166.201 10.7566 166.473 10.5886C166.753 10.4206 166.969 10.1886 167.121 9.89257C167.273 9.59657 167.349 9.25657 167.349 8.87257C167.349 8.48057 167.269 8.13657 167.109 7.84057C166.957 7.53657 166.745 7.30057 166.473 7.13257C166.201 6.96457 165.885 6.88057 165.525 6.88057C165.165 6.88057 164.849 6.96857 164.577 7.14457C164.305 7.31257 164.089 7.54857 163.929 7.85257C163.777 8.14857 163.701 8.48857 163.701 8.87257C163.701 9.24857 163.777 9.58857 163.929 9.89257C164.089 10.1886 164.305 10.4206 164.577 10.5886C164.849 10.7566 165.165 10.8406 165.525 10.8406ZM170.496 12.0406V3.16057H171.96V7.01257L171.684 7.15657C171.764 6.86857 171.92 6.60857 172.152 6.37657C172.384 6.13657 172.66 5.94457 172.98 5.80057C173.3 5.65657 173.628 5.58457 173.964 5.58457C174.444 5.58457 174.844 5.68057 175.164 5.87257C175.492 6.06457 175.736 6.35257 175.896 6.73657C176.064 7.12057 176.148 7.60057 176.148 8.17657V12.0406H174.672V8.28457C174.672 7.96457 174.628 7.70057 174.54 7.49257C174.452 7.27657 174.316 7.12057 174.132 7.02457C173.948 6.92057 173.724 6.87257 173.46 6.88057C173.244 6.88057 173.044 6.91657 172.86 6.98857C172.684 7.05257 172.528 7.14857 172.392 7.27657C172.264 7.39657 172.16 7.53657 172.08 7.69657C172.008 7.85657 171.972 8.03257 171.972 8.22457V12.0406H171.24C171.096 12.0406 170.96 12.0406 170.832 12.0406C170.712 12.0406 170.6 12.0406 170.496 12.0406ZM181.6 12.0406V3.64057H183.16V12.0406H181.6ZM182.32 8.59657V7.18057H186.652V8.59657H182.32ZM182.32 5.08057V3.64057H187.168V5.08057H182.32ZM188.531 12.0406V5.71657H189.983L190.007 7.73257L189.803 7.27657C189.891 6.95657 190.043 6.66857 190.259 6.41257C190.475 6.15657 190.723 5.95657 191.003 5.81257C191.291 5.66057 191.591 5.58457 191.903 5.58457C192.039 5.58457 192.167 5.59657 192.287 5.62057C192.415 5.64457 192.519 5.67257 192.599 5.70457L192.203 7.32457C192.115 7.27657 192.007 7.23657 191.879 7.20457C191.751 7.17257 191.623 7.15657 191.495 7.15657C191.295 7.15657 191.103 7.19657 190.919 7.27657C190.743 7.34857 190.587 7.45257 190.451 7.58857C190.315 7.72457 190.207 7.88457 190.127 8.06857C190.055 8.24457 190.019 8.44457 190.019 8.66857V12.0406H188.531ZM196.276 12.1606C195.612 12.1606 195.024 12.0206 194.512 11.7406C194.008 11.4606 193.612 11.0806 193.324 10.6006C193.044 10.1126 192.904 9.55657 192.904 8.93257C192.904 8.43657 192.984 7.98457 193.144 7.57657C193.304 7.16857 193.524 6.81657 193.804 6.52057C194.092 6.21657 194.432 5.98457 194.824 5.82457C195.224 5.65657 195.66 5.57257 196.132 5.57257C196.548 5.57257 196.936 5.65257 197.296 5.81257C197.656 5.97257 197.968 6.19257 198.232 6.47257C198.496 6.74457 198.696 7.07257 198.832 7.45657C198.976 7.83257 199.044 8.24457 199.036 8.69257L199.024 9.20857H193.9L193.624 8.20057H197.788L197.596 8.40457V8.14057C197.572 7.89257 197.492 7.67657 197.356 7.49257C197.22 7.30057 197.044 7.15257 196.828 7.04857C196.62 6.93657 196.388 6.88057 196.132 6.88057C195.74 6.88057 195.408 6.95657 195.136 7.10857C194.872 7.26057 194.672 7.48057 194.536 7.76857C194.4 8.04857 194.332 8.40057 194.332 8.82457C194.332 9.23257 194.416 9.58857 194.584 9.89257C194.76 10.1966 195.004 10.4326 195.316 10.6006C195.636 10.7606 196.008 10.8406 196.432 10.8406C196.728 10.8406 197 10.7926 197.248 10.6966C197.496 10.6006 197.764 10.4286 198.052 10.1806L198.784 11.2006C198.568 11.4006 198.32 11.5726 198.04 11.7166C197.768 11.8526 197.48 11.9606 197.176 12.0406C196.872 12.1206 196.572 12.1606 196.276 12.1606ZM204.819 14.6806V10.5286L205.119 10.5646C205.111 10.7566 205.039 10.9486 204.903 11.1406C204.775 11.3246 204.603 11.4966 204.387 11.6566C204.179 11.8086 203.943 11.9326 203.679 12.0286C203.423 12.1166 203.155 12.1606 202.875 12.1606C202.315 12.1606 201.811 12.0206 201.363 11.7406C200.923 11.4526 200.575 11.0606 200.319 10.5646C200.063 10.0686 199.935 9.50457 199.935 8.87257C199.935 8.23257 200.059 7.66857 200.307 7.18057C200.563 6.68457 200.907 6.29657 201.339 6.01657C201.779 5.72857 202.279 5.58457 202.839 5.58457C203.143 5.58457 203.435 5.63257 203.715 5.72857C203.995 5.82457 204.247 5.95257 204.471 6.11257C204.695 6.27257 204.871 6.45257 204.999 6.65257C205.135 6.85257 205.207 7.05657 205.215 7.26457L204.831 7.30057L204.855 5.70457H206.295V14.6806H204.819ZM203.115 10.8526C203.459 10.8526 203.763 10.7686 204.027 10.6006C204.291 10.4326 204.495 10.2006 204.639 9.90457C204.791 9.60857 204.867 9.26457 204.867 8.87257C204.867 8.48057 204.791 8.13657 204.639 7.84057C204.495 7.53657 204.291 7.30057 204.027 7.13257C203.763 6.96457 203.459 6.88057 203.115 6.88057C202.771 6.88057 202.467 6.96857 202.203 7.14457C201.939 7.31257 201.731 7.54857 201.579 7.85257C201.435 8.14857 201.363 8.48857 201.363 8.87257C201.363 9.25657 201.435 9.60057 201.579 9.90457C201.731 10.2006 201.939 10.4326 202.203 10.6006C202.467 10.7686 202.771 10.8526 203.115 10.8526ZM210.215 12.1606C209.759 12.1606 209.363 12.0606 209.027 11.8606C208.691 11.6526 208.435 11.3606 208.259 10.9846C208.083 10.6006 207.995 10.1446 207.995 9.61657V5.71657H209.471V9.30457C209.471 9.64057 209.523 9.92857 209.627 10.1686C209.731 10.4006 209.883 10.5806 210.083 10.7086C210.283 10.8366 210.523 10.9006 210.803 10.9006C211.011 10.9006 211.199 10.8686 211.367 10.8046C211.543 10.7326 211.695 10.6366 211.823 10.5166C211.951 10.3886 212.051 10.2406 212.123 10.0726C212.195 9.89657 212.231 9.70857 212.231 9.50857V5.71657H213.707V12.0406H212.267L212.243 10.7206L212.507 10.5766C212.411 10.8806 212.247 11.1526 212.015 11.3926C211.791 11.6246 211.523 11.8126 211.211 11.9566C210.899 12.0926 210.567 12.1606 210.215 12.1606ZM218.401 12.1606C217.737 12.1606 217.149 12.0206 216.637 11.7406C216.133 11.4606 215.737 11.0806 215.449 10.6006C215.169 10.1126 215.029 9.55657 215.029 8.93257C215.029 8.43657 215.109 7.98457 215.269 7.57657C215.429 7.16857 215.649 6.81657 215.929 6.52057C216.217 6.21657 216.557 5.98457 216.949 5.82457C217.349 5.65657 217.785 5.57257 218.257 5.57257C218.673 5.57257 219.061 5.65257 219.421 5.81257C219.781 5.97257 220.093 6.19257 220.357 6.47257C220.621 6.74457 220.821 7.07257 220.957 7.45657C221.101 7.83257 221.169 8.24457 221.161 8.69257L221.149 9.20857H216.025L215.749 8.20057H219.913L219.721 8.40457V8.14057C219.697 7.89257 219.617 7.67657 219.481 7.49257C219.345 7.30057 219.169 7.15257 218.953 7.04857C218.745 6.93657 218.513 6.88057 218.257 6.88057C217.865 6.88057 217.533 6.95657 217.261 7.10857C216.997 7.26057 216.797 7.48057 216.661 7.76857C216.525 8.04857 216.457 8.40057 216.457 8.82457C216.457 9.23257 216.541 9.58857 216.709 9.89257C216.885 10.1966 217.129 10.4326 217.441 10.6006C217.761 10.7606 218.133 10.8406 218.557 10.8406C218.853 10.8406 219.125 10.7926 219.373 10.6966C219.621 10.6006 219.889 10.4286 220.177 10.1806L220.909 11.2006C220.693 11.4006 220.445 11.5726 220.165 11.7166C219.893 11.8526 219.605 11.9606 219.301 12.0406C218.997 12.1206 218.697 12.1606 218.401 12.1606ZM222.468 12.0406V5.71657H223.908L223.932 7.01257L223.656 7.15657C223.736 6.86857 223.892 6.60857 224.124 6.37657C224.356 6.13657 224.632 5.94457 224.952 5.80057C225.272 5.65657 225.6 5.58457 225.936 5.58457C226.416 5.58457 226.816 5.68057 227.136 5.87257C227.464 6.06457 227.708 6.35257 227.868 6.73657C228.036 7.12057 228.12 7.60057 228.12 8.17657V12.0406H226.644V8.28457C226.644 7.96457 226.6 7.70057 226.512 7.49257C226.424 7.27657 226.288 7.12057 226.104 7.02457C225.92 6.92057 225.696 6.87257 225.432 6.88057C225.216 6.88057 225.016 6.91657 224.832 6.98857C224.656 7.05257 224.5 7.14857 224.364 7.27657C224.236 7.39657 224.132 7.53657 224.052 7.69657C223.98 7.85657 223.944 8.03257 223.944 8.22457V12.0406H223.212C223.068 12.0406 222.932 12.0406 222.804 12.0406C222.684 12.0406 222.572 12.0406 222.468 12.0406ZM232.493 12.1606C231.901 12.1606 231.369 12.0166 230.897 11.7286C230.425 11.4406 230.053 11.0486 229.781 10.5526C229.509 10.0566 229.373 9.49657 229.373 8.87257C229.373 8.24857 229.509 7.68857 229.781 7.19257C230.053 6.69657 230.425 6.30457 230.897 6.01657C231.369 5.72857 231.901 5.58457 232.493 5.58457C233.061 5.58457 233.577 5.69257 234.041 5.90857C234.505 6.12457 234.865 6.42457 235.121 6.80857L234.305 7.79257C234.185 7.62457 234.033 7.47257 233.849 7.33657C233.665 7.20057 233.469 7.09257 233.261 7.01257C233.053 6.93257 232.845 6.89257 232.637 6.89257C232.285 6.89257 231.969 6.98057 231.689 7.15657C231.417 7.32457 231.201 7.56057 231.041 7.86457C230.881 8.16057 230.801 8.49657 230.801 8.87257C230.801 9.24857 230.881 9.58457 231.041 9.88057C231.209 10.1766 231.433 10.4126 231.713 10.5886C231.993 10.7646 232.305 10.8526 232.649 10.8526C232.857 10.8526 233.057 10.8206 233.249 10.7566C233.449 10.6846 233.637 10.5846 233.813 10.4566C233.989 10.3286 234.153 10.1686 234.305 9.97657L235.121 10.9726C234.849 11.3246 234.473 11.6126 233.993 11.8366C233.521 12.0526 233.021 12.1606 232.493 12.1606ZM237.034 14.8006L238.378 11.6926L238.39 12.6766L235.27 5.71657H236.974L238.714 9.84457C238.77 9.94857 238.826 10.0886 238.882 10.2646C238.938 10.4326 238.986 10.6006 239.026 10.7686L238.726 10.8646C238.782 10.7126 238.842 10.5526 238.906 10.3846C238.97 10.2086 239.03 10.0286 239.086 9.84457L240.574 5.71657H242.29L239.65 12.0406L238.57 14.8006H237.034Z" fill="#0099FF"/>
<path d="M123.43 13.6606L128.398 3.64057H129.838L124.894 13.6606H123.43Z" fill="#0099FF"/>
<path d="M2.06442 70.4612C2.39742 67.5504 2.73142 64.6397 3.06442 61.7925C3.39742 58.9454 3.73142 56.1618 4.06442 53.5027C4.39742 50.8436 4.73142 48.3089 5.06442 45.954C5.39742 43.5992 5.73142 41.4241 6.06442 39.4765C6.39742 37.5288 6.73142 35.8085 7.06442 34.3531C7.39742 32.8977 7.73142 31.7073 8.06442 30.8078C8.39742 29.9083 8.73142 29.2998 9.06442 28.9955C9.39742 28.6913 9.73142 28.6913 10.0644 28.9955C10.3974 29.2998 10.7314 29.9083 11.0644 30.8078C11.3974 31.7073 11.7314 32.8977 12.0644 34.3531C12.3974 35.8085 12.7314 37.5288 13.0644 39.4765C13.3974 41.4242 13.7314 43.5992 14.0644 45.954C14.3974 48.3089 14.7314 50.8436 15.0644 53.5027C15.3974 56.1618 15.7314 58.9454 16.0644 61.7925C16.3974 64.6397 16.7314 67.5504 17.0644 70.4612C17.3974 73.372 17.7314 76.2827 18.0644 79.1299C18.3974 81.977 18.7314 84.7606 19.0644 87.4197C19.3974 90.0788 19.7314 92.6135 20.0644 94.9684C20.3974 97.3232 20.7314 99.4983 21.0644 101.446C21.3974 103.394 21.7314 105.114 22.0644 106.569C22.3977 108.025 22.7311 109.215 23.0644 110.115C23.3977 111.014 23.7311 111.623 24.0644 111.927C24.3977 112.231 24.7311 112.231 25.0644 111.927C25.3977 111.623 25.7311 111.014 26.0644 110.115C26.3977 109.215 26.7311 108.025 27.0644 106.569C27.3977 105.114 27.7311 103.394 28.0644 101.446C28.3977 99.4983 28.7311 97.3232 29.0644 94.9684C29.3977 92.6135 29.7311 90.0788 30.0644 87.4197C30.3977 84.7606 30.7311 81.977 31.0644 79.1299C31.3977 76.2827 31.7311 73.372 32.0644 70.4612C32.3977 67.5504 32.7311 64.6397 33.0644 61.7925C33.3977 58.9454 33.7311 56.1618 34.0644 53.5027C34.3977 50.8436 34.7311 48.3089 35.0644 45.954C35.3977 43.5992 35.7311 41.4241 36.0644 39.4765C36.3977 37.5288 36.7311 35.8085 37.0644 34.3531C37.3977 32.8977 37.7311 31.7073 38.0644 30.8078C38.3977 29.9083 38.7311 29.2998 39.0644 28.9955C39.3977 28.6913 39.7311 28.6913 40.0644 28.9955C40.3977 29.2998 40.7311 29.9083 41.0644 30.8078C41.3977 31.7073 41.7311 32.8977 42.0644 34.3531C42.3977 35.8085 42.7311 37.5288 43.0644 39.4765C43.3977 41.4241 43.7311 43.5992 44.0644 45.954C44.3977 48.3089 44.7311 50.8436 45.0644 53.5027C45.3977 56.1618 45.7311 58.9454 46.0644 61.7925C46.3977 64.6397 46.7311 67.5504 47.0644 70.4612C47.3977 73.372 47.7311 76.2827 48.0644 79.1299C48.3977 81.977 48.7311 84.7606 49.0644 87.4197C49.3977 90.0788 49.7311 92.6135 50.0644 94.9684C50.3977 97.3232 50.7311 99.4983 51.0644 101.446C51.3977 103.394 51.7311 105.114 52.0644 106.569C52.3977 108.025 52.7311 109.215 53.0644 110.115C53.3977 111.014 53.7311 111.623 54.0644 111.927C54.3977 112.231 54.7311 112.231 55.0644 111.927C55.3977 111.623 55.7311 111.014 56.0644 110.115C56.3977 109.215 56.7311 108.025 57.0644 106.569C57.3977 105.114 57.7311 103.394 58.0644 101.446C58.3977 99.4983 58.7311 97.3232 59.0644 94.9684C59.3977 92.6135 59.7311 90.0788 60.0644 87.4197C60.3977 84.7606 60.7311 81.977 61.0644 79.1299C61.3977 76.2827 61.7311 73.372 62.0644 70.4612C62.3977 67.5504 62.7311 64.6397 63.0644 61.7925C63.3977 58.9454 63.7311 56.1618 64.0644 53.5027C64.3977 50.8436 64.7311 48.3089 65.0644 45.9541C65.3977 43.5992 65.7311 41.4241 66.0644 39.4765C66.3977 37.5288 66.7311 35.8084 67.0644 34.3531C67.3977 32.8977 67.7311 31.7073 68.0644 30.8078C68.3977 29.9083 68.7311 29.2998 69.0644 28.9955C69.3977 28.6913 69.7311 28.6913 70.0644 28.9955C70.3977 29.2998 70.7311 29.9083 71.0644 30.8078C71.3977 31.7073 71.7311 32.8977 72.0644 34.3531C72.3977 35.8084 72.7311 37.5288 73.0644 39.4765C73.3977 41.4241 73.7311 43.5992 74.0644 45.9541C74.3977 48.3089 74.7311 50.8436 75.0644 53.5027C75.3977 56.1618 75.7311 58.9454 76.0644 61.7925C76.3977 64.6397 76.7311 67.5504 77.0644 70.4612C77.3977 73.372 77.7311 76.2827 78.0644 79.1299C78.3977 81.977 78.7311 84.7606 79.0644 87.4197C79.3977 90.0788 79.7311 92.6135 80.0644 94.9683C80.3977 97.3232 80.7311 99.4983 81.0644 101.446C81.3977 103.394 81.7311 105.114 82.0644 106.569C82.3977 108.025 82.7311 109.215 83.0644 110.115C83.3977 111.014 83.7311 111.623 84.0644 111.927C84.3977 112.231 84.7311 112.231 85.0644 111.927C85.3977 111.623 85.7311 111.014 86.0644 110.115C86.3977 109.215 86.7311 108.025 87.0644 106.569C87.3977 105.114 87.7311 103.394 88.0644 101.446C88.3977 99.4983 88.7311 97.3232 89.0644 94.9683C89.3977 92.6135 89.7311 90.0788 90.0644 87.4197C90.3977 84.7606 90.7311 81.977 91.0644 79.1299C91.3977 76.2827 91.7311 73.372 92.0644 70.4612C92.3977 67.5504 92.7311 64.6397 93.0644 61.7925C93.3977 58.9454 93.7311 56.1618 94.0644 53.5027C94.3977 50.8436 94.7311 48.3089 95.0644 45.9541C95.3977 43.5992 95.7311 41.4241 96.0644 39.4765C96.3977 37.5288 96.7311 35.8084 97.0644 34.3531C97.3977 32.8977 97.7311 31.7073 98.0644 30.8078C98.3977 29.9083 98.7311 29.2998 99.0644 28.9955C99.3977 28.6913 99.731 28.6913 100.064 28.9955C100.398 29.2998 100.731 29.9083 101.064 30.8078C101.398 31.7073 101.731 32.8977 102.064 34.3531C102.398 35.8084 102.731 37.5288 103.064 39.4765C103.398 41.4241 103.731 43.5992 104.064 45.9541C104.398 48.3089 104.731 50.8436 105.064 53.5027C105.398 56.1618 105.731 58.9454 106.064 61.7925C106.398 64.6397 106.731 67.5504 107.064 70.4612C107.398 73.372 107.731 76.2827 108.064 79.1299C108.398 81.977 108.731 84.7606 109.064 87.4197C109.398 90.0788 109.731 92.6135 110.064 94.9683C110.398 97.3232 110.731 99.4983 111.064 101.446C111.398 103.394 111.731 105.114 112.064 106.569C112.398 108.025 112.731 109.215 113.064 110.115C113.398 111.014 113.731 111.623 114.064 111.927C114.398 112.231 114.731 112.231 115.064 111.927C115.398 111.623 115.731 111.014 116.064 110.115C116.398 109.215 116.731 108.025 117.064 106.569C117.398 105.114 117.731 103.394 118.064 101.446C118.398 99.4983 118.731 97.3232 119.064 94.9683C119.398 92.6135 119.731 90.0788 120.064 87.4197C120.398 84.7606 120.731 81.977 121.064 79.1299C121.398 76.2827 121.731 73.372 122.064 70.4612C122.398 67.5504 122.731 64.6397 123.064 61.7925C123.398 58.9454 123.731 56.1618 124.064 53.5027C124.398 50.8436 124.731 48.3089 125.064 45.9541C125.398 43.5992 125.731 41.4242 126.064 39.4765C126.398 37.5288 126.731 35.8085 127.064 34.3531C127.398 32.8977 127.731 31.7073 128.064 30.8078C128.398 29.9083 128.731 29.2998 129.064 28.9955C129.398 28.6913 129.731 28.6913 130.064 28.9955C130.398 29.2998 130.731 29.9083 131.064 30.8078C131.398 31.7073 131.731 32.8977 132.064 34.3531C132.398 35.8085 132.731 37.5288 133.064 39.4765C133.398 41.4242 133.731 43.5992 134.064 45.9541C134.398 48.3089 134.731 50.8436 135.064 53.5027C135.398 56.1618 135.731 58.9454 136.064 61.7925C136.398 64.6397 136.731 67.5504 137.064 70.4612C137.398 73.372 137.731 76.2827 138.064 79.1299C138.398 81.977 138.731 84.7606 139.064 87.4197C139.398 90.0788 139.731 92.6135 140.064 94.9683C140.398 97.3232 140.731 99.4982 141.064 101.446C141.398 103.394 141.731 105.114 142.064 106.569C142.398 108.025 142.731 109.215 143.064 110.115C143.398 111.014 143.731 111.623 144.064 111.927C144.398 112.231 144.731 112.231 145.064 111.927C145.398 111.623 145.731 111.014 146.064 110.115C146.398 109.215 146.731 108.025 147.064 106.569C147.398 105.114 147.731 103.394 148.064 101.446C148.398 99.4982 148.731 97.3232 149.064 94.9683C149.398 92.6135 149.731 90.0788 150.064 87.4197C150.398 84.7606 150.731 81.977 151.064 79.1299C151.398 76.2827 151.731 73.372 152.064 70.4612C152.398 67.5504 152.731 64.6397 153.064 61.7925C153.398 58.9454 153.731 56.1618 154.064 53.5027C154.398 50.8436 154.731 48.3089 155.064 45.9541C155.398 43.5992 155.731 41.4242 156.064 39.4765C156.398 37.5288 156.731 35.8085 157.064 34.3531C157.398 32.8977 157.731 31.7073 158.064 30.8078C158.398 29.9083 158.731 29.2998 159.064 28.9955C159.398 28.6913 159.731 28.6913 160.064 28.9955C160.398 29.2998 160.731 29.9083 161.064 30.8078C161.398 31.7073 161.731 32.8977 162.064 34.3531C162.398 35.8085 162.731 37.5288 163.064 39.4765C163.398 41.4242 163.731 43.5992 164.064 45.9541C164.398 48.3089 164.731 50.8436 165.064 53.5027C165.398 56.1618 165.731 58.9454 166.064 61.7925C166.398 64.6397 166.731 67.5504 167.064 70.4612C167.398 73.372 167.731 76.2827 168.064 79.1299C168.398 81.977 168.731 84.7606 169.064 87.4197C169.398 90.0788 169.731 92.6135 170.064 94.9683C170.398 97.3232 170.731 99.4982 171.064 101.446C171.398 103.394 171.731 105.114 172.064 106.569C172.398 108.025 172.731 109.215 173.064 110.115C173.398 111.014 173.731 111.623 174.064 111.927C174.398 112.231 174.731 112.231 175.064 111.927C175.398 111.623 175.731 111.014 176.064 110.115C176.398 109.215 176.731 108.025 177.064 106.569C177.398 105.114 177.731 103.394 178.064 101.446C178.398 99.4982 178.731 97.3232 179.064 94.9683C179.398 92.6135 179.731 90.0788 180.064 87.4197C180.398 84.7606 180.731 81.977 181.064 79.1299C181.398 76.2827 181.731 73.372 182.064 70.4612C182.398 67.5504 182.731 64.6397 183.064 61.7925C183.398 58.9454 183.731 56.1618 184.064 53.5027C184.398 50.8436 184.731 48.3089 185.064 45.9541C185.398 43.5992 185.731 41.4242 186.064 39.4765C186.398 37.5288 186.731 35.8085 187.064 34.3531C187.398 32.8977 187.731 31.7073 188.064 30.8078C188.398 29.9083 188.731 29.2998 189.064 28.9955C189.398 28.6913 189.731 28.6913 190.064 28.9955C190.398 29.2998 190.731 29.9083 191.064 30.8078C191.398 31.7073 191.731 32.8977 192.064 34.3531C192.398 35.8085 192.731 37.5288 193.064 39.4765C193.398 41.4242 193.731 43.5992 194.064 45.9541C194.398 48.3089 194.731 50.8436 195.064 53.5027C195.398 56.1618 195.731 58.9454 196.064 61.7925C196.398 64.6397 196.731 67.5504 197.064 70.4612C197.398 73.372 197.731 76.2827 198.064 79.1299C198.398 81.977 198.731 84.7606 199.064 87.4197C199.398 90.0788 199.731 92.6135 200.064 94.9683C200.398 97.3232 200.731 99.4982 201.064 101.446C201.398 103.394 201.731 105.114 202.064 106.569C202.398 108.025 202.731 109.215 203.064 110.115C203.398 111.014 203.731 111.623 204.064 111.927C204.398 112.231 204.731 112.231 205.064 111.927C205.398 111.623 205.731 111.014 206.064 110.115C206.398 109.215 206.731 108.025 207.064 106.569C207.398 105.114 207.731 103.394 208.064 101.446C208.398 99.4982 208.731 97.3232 209.064 94.9683C209.398 92.6135 209.731 90.0788 210.064 87.4197C210.398 84.7606 210.731 81.977 211.064 79.1299C211.398 76.2827 211.731 73.372 212.064 70.4612C212.398 67.5504 212.731 64.6397 213.064 61.7925C213.398 58.9454 213.731 56.1618 214.064 53.5027C214.398 50.8436 214.731 48.3089 215.064 45.9541C215.398 43.5992 215.731 41.4242 216.064 39.4765C216.398 37.5288 216.731 35.8085 217.064 34.3531C217.398 32.8977 217.731 31.7073 218.064 30.8078C218.398 29.9083 218.731 29.2998 219.064 28.9955C219.398 28.6913 219.731 28.6913 220.064 28.9955C220.398 29.2998 220.731 29.9083 221.064 30.8078C221.398 31.7073 221.731 32.8977 222.064 34.3531C222.397 35.8085 222.731 37.5288 223.064 39.4765C223.397 41.4242 223.731 43.5992 224.064 45.9541C224.397 48.3089 224.731 50.8436 225.064 53.5027C225.397 56.1618 225.731 58.9454 226.064 61.7925C226.397 64.6397 226.731 67.5504 227.064 70.4612C227.397 73.372 227.731 76.2827 228.064 79.1299C228.397 81.977 228.731 84.7606 229.064 87.4197C229.397 90.0788 229.731 92.6135 230.064 94.9683C230.397 97.3232 230.731 99.4982 231.064 101.446C231.397 103.394 231.731 105.114 232.064 106.569C232.397 108.025 232.731 109.215 233.064 110.115C233.397 111.014 233.731 111.623 234.064 111.927C234.397 112.231 234.731 112.231 235.064 111.927C235.397 111.623 235.731 111.014 236.064 110.115C236.397 109.215 236.731 108.025 237.064 106.569C237.397 105.114 237.731 103.394 238.064 101.446C238.397 99.4982 238.731 97.3232 239.064 94.9683C239.397 92.6135 239.731 90.0788 240.064 87.4197C240.397 84.7606 240.731 81.977 241.064 79.1299C241.397 76.2827 241.731 73.372 242.064 70.4612" stroke="#191919" stroke-width="4" stroke-miterlimit="10" stroke-linecap="round"/>
</svg>
