<?xml version="1.0" encoding="utf-8" ?>
<svg baseProfile="tiny" height="21600" version="1.2" width="28800" xmlns="http://www.w3.org/2000/svg" xmlns:ev="http://www.w3.org/2001/xml-events" xmlns:xlink="http://www.w3.org/1999/xlink"><defs /><rect fill="rgb(185,114,85)" height="16200.0" width="28800" x="0" y="0" /><rect fill="rgb(106,151,190)" height="4968.0" width="28800" x="0" y="16200.0" /><rect fill="rgb(188,41,90)" height="0.0001" width="28800" x="0" y="21168.0" /><rect fill="rgb(145,184,74)" height="0.0" width="28800" x="0" y="21168.0001" /><rect fill="rgb(206,5,254)" height="0.0" width="28800" x="0" y="21168.0002" /><rect fill="rgb(123,181,76)" height="108.0" width="28800" x="0" y="21168.0002" /><rect fill="rgb(205,118,114)" height="21.6" width="28800" x="0" y="21276.0002" /><rect fill="rgb(71,184,168)" height="216.0" width="28800" x="0" y="21297.6002" /><rect fill="rgb(193,183,112)" height="0.0086" width="28800" x="0" y="21513.6002" /><rect fill="rgb(52,104,145)" height="28.08" width="28800" x="0" y="21513.6088" /><rect fill="rgb(176,54,20)" height="0.432" width="28800" x="0" y="21541.6888" /><rect fill="rgb(167,147,170)" height="12.96" width="28800" x="0" y="21542.1208" /><rect fill="rgb(30,188,222)" height="1.08" width="28800" x="0" y="21555.0808" /><rect fill="rgb(87,136,59)" height="15.12" width="28800" x="0" y="21556.1608" /><rect fill="rgb(169,89,59)" height="0.1512" width="28800" x="0" y="21571.2808" /><rect fill="rgb(115,183,13)" height="10.8" width="28800" x="0" y="21571.432" /><rect fill="rgb(185,94,152)" height="0.0216" width="28800" x="0" y="21582.232" /><rect fill="rgb(163,215,160)" height="4.32" width="28800" x="0" y="21582.2536" /><rect fill="rgb(169,14,6)" height="0.0648" width="28800" x="0" y="21586.5736" /><rect fill="rgb(152,206,83)" height="1.512" width="28800" x="0" y="21586.6384" /><rect fill="rgb(66,62,90)" height="0.0006" width="28800" x="0" y="21588.1504" /><rect fill="rgb(94,76,246)" height="0.0648" width="28800" x="0" y="21588.1511" /><rect fill="rgb(240,5,138)" height="0.0216" width="28800" x="0" y="21588.2159" /><rect fill="rgb(146,40,73)" height="0.324" width="28800" x="0" y="21588.2375" /><rect fill="rgb(127,247,179)" height="0.1728" width="28800" x="0" y="21588.5615" /><rect fill="rgb(38,254,54)" height="23.76" width="28800" x="0" y="21588.7343" /><rect fill="rgb(79,202,102)" height="0.0648" width="28800" x="0" y="21612.4943" /><rect fill="rgb(189,168,97)" height="1.296" width="28800" x="0" y="21612.5591" /><rect fill="rgb(249,66,232)" height="0.0013" width="28800" x="0" y="21613.8551" /><rect fill="rgb(53,164,7)" height="0.0065" width="28800" x="0" y="21613.8564" /><rect fill="rgb(80,56,168)" height="0.0002" width="28800" x="0" y="21613.8628" /><rect fill="rgb(182,70,145)" height="0.0043" width="28800" x="0" y="21613.8631" /><rect fill="rgb(141,58,24)" height="0.0002" width="28800" x="0" y="21613.8674" /><rect fill="rgb(27,74,242)" height="0.0006" width="28800" x="0" y="21613.8675" /><rect fill="rgb(88,223,17)" height="0.0002" width="28800" x="0" y="21613.8682" /><rect fill="rgb(8,119,235)" height="0.0009" width="28800" x="0" y="21613.8683" /><rect fill="rgb(75,4,221)" height="0.0002" width="28800" x="0" y="21613.8692" /><rect fill="rgb(111,74,186)" height="0.0009" width="28800" x="0" y="21613.8694" /><rect fill="rgb(254,87,192)" height="0.0002" width="28800" x="0" y="21613.8703" /><rect fill="rgb(52,174,62)" height="0.0011" width="28800" x="0" y="21613.8704" /><rect fill="rgb(157,71,199)" height="0.0" width="28800" x="0" y="21613.8715" /><rect fill="rgb(71,86,46)" height="0.0001" width="28800" x="0" y="21613.8716" /><rect fill="rgb(20,5,66)" height="0.0001" width="28800" x="0" y="21613.8717" /><rect fill="rgb(153,2,190)" height="0.0" width="28800" x="0" y="21613.8718" /><rect fill="rgb(64,138,195)" height="0.0" width="28800" x="0" y="21613.8718" /><rect fill="rgb(214,11,138)" height="0.0" width="28800" x="0" y="21613.8718" /><rect fill="rgb(132,187,171)" height="0.0" width="28800" x="0" y="21613.8718" /><rect fill="rgb(88,77,34)" height="0.0" width="28800" x="0" y="21613.8719" /><rect fill="rgb(235,157,254)" height="0.0001" width="28800" x="0" y="21613.8719" /><rect fill="rgb(28,110,151)" height="0.0" width="28800" x="0" y="21613.872" /><rect fill="rgb(190,21,72)" height="0.0002" width="28800" x="0" y="21613.872" /><rect fill="rgb(165,224,59)" height="0.0" width="28800" x="0" y="21613.8722" /><rect fill="rgb(148,7,100)" height="0.0002" width="28800" x="0" y="21613.8722" /><rect fill="rgb(70,194,0)" height="0.0" width="28800" x="0" y="21613.8724" /><rect fill="rgb(79,0,179)" height="0.0002" width="28800" x="0" y="21613.8724" /><rect fill="rgb(145,148,172)" height="0.0" width="28800" x="0" y="21613.8726" /><rect fill="rgb(121,10,142)" height="0.0" width="28800" x="0" y="21613.8727" /><rect fill="rgb(204,31,222)" height="0.0" width="28800" x="0" y="21613.8727" /><rect fill="rgb(182,106,82)" height="0.0" width="28800" x="0" y="21613.8727" /><rect fill="rgb(83,84,76)" height="0.0001" width="28800" x="0" y="21613.8727" /><rect fill="rgb(125,216,166)" height="0.0" width="28800" x="0" y="21613.8727" /><rect fill="rgb(196,124,49)" height="0.0001" width="28800" x="0" y="21613.8728" /><rect fill="rgb(236,254,49)" height="0.0" width="28800" x="0" y="21613.8729" /><rect fill="rgb(106,94,179)" height="0.0" width="28800" x="0" y="21613.8729" /><rect fill="rgb(86,243,185)" height="0.0" width="28800" x="0" y="21613.8729" /><rect fill="rgb(201,94,102)" height="0.0002" width="28800" x="0" y="21613.8729" /><rect fill="rgb(69,78,251)" height="0.0" width="28800" x="0" y="21613.8731" /><rect fill="rgb(190,5,22)" height="0.0" width="28800" x="0" y="21613.8732" /><rect fill="rgb(137,158,41)" height="0.0002" width="28800" x="0" y="21613.8732" /><rect fill="rgb(248,125,2)" height="0.0" width="28800" x="0" y="21613.8734" /><rect fill="rgb(123,217,133)" height="0.0002" width="28800" x="0" y="21613.8735" /><rect fill="rgb(214,39,238)" height="0.0001" width="28800" x="0" y="21613.8737" /><rect fill="rgb(48,105,128)" height="0.0" width="28800" x="0" y="21613.8738" /><rect fill="rgb(72,222,235)" height="0.0" width="28800" x="0" y="21613.8738" /><rect fill="rgb(103,102,227)" height="0.0" width="28800" x="0" y="21613.8738" /><rect fill="rgb(44,51,190)" height="0.0" width="28800" x="0" y="21613.8739" /><rect fill="rgb(49,169,41)" height="0.0" width="28800" x="0" y="21613.8739" /><rect fill="rgb(69,126,52)" height="0.0" width="28800" x="0" y="21613.8739" /><rect fill="rgb(235,25,27)" height="0.0" width="28800" x="0" y="21613.8739" /><rect fill="rgb(14,122,115)" height="0.0" width="28800" x="0" y="21613.874" /><rect fill="rgb(109,92,45)" height="0.0" width="28800" x="0" y="21613.874" /><rect fill="rgb(248,185,138)" height="0.0" width="28800" x="0" y="21613.874" /><rect fill="rgb(22,181,165)" height="0.0" width="28800" x="0" y="21613.874" /></svg>